<?xml version="1.0" encoding="UTF-8" standalone="no"?><!DOCTYPE svg PUBLIC "-//W3C//DTD SVG 1.1//EN" "http://www.w3.org/Graphics/SVG/1.1/DTD/svg11.dtd"><svg width="100%" height="100%" viewBox="0 0 3106 970" version="1.1" xmlns="http://www.w3.org/2000/svg" xmlns:xlink="http://www.w3.org/1999/xlink" xml:space="preserve" xmlns:serif="http://www.serif.com/" style="fill-rule:evenodd;clip-rule:evenodd;stroke-linejoin:round;stroke-miterlimit:2;"><g><g><path d="M15.834,496.172c12.549,-59.793 21.592,-122.538 27.128,-188.237l-37.647,0c-2.953,0 -4.429,-1.476 -4.429,-4.429c0,-2.952 1.476,-4.429 4.429,-4.429l38.201,0c2.583,-31.741 4.244,-64.221 4.982,-97.44l-12.18,0c-2.952,0 -4.429,-1.476 -4.429,-4.429c0,-2.952 1.477,-4.429 4.429,-4.429l38.201,0c12.18,0 17.532,6.09 16.056,18.27c-3.691,31.742 -7.567,61.085 -11.627,88.028l57.025,0c12.918,0 19.193,6.459 18.823,19.378c-2.583,82.307 -15.132,152.434 -37.647,210.381c-3.691,9.965 -7.935,19.377 -12.733,28.235c17.716,15.502 33.402,30.819 47.059,45.952c3.321,3.691 3.875,6.459 1.661,8.305c-2.215,2.214 -4.983,1.476 -8.305,-2.215c-13.287,-14.763 -28.235,-29.343 -44.844,-43.737c-21.777,40.231 -52.042,73.633 -90.797,100.208c-3.691,2.584 -6.459,2.768 -8.304,0.554c-1.477,-1.477 -1.107,-3.507 1.107,-6.09c31.373,-33.588 55.364,-72.342 71.973,-116.264c-17.348,-14.025 -35.987,-27.866 -55.917,-41.522c-2.215,-1.477 -2.953,-3.507 -2.215,-6.09Zm62.007,-188.237c-13.656,85.999 -30.634,149.297 -50.934,189.897c18.085,12.18 34.879,24.545 50.381,37.094c2.583,-7.751 4.982,-15.502 7.197,-23.253c15.871,-55.363 24.729,-123.276 26.574,-203.738l-33.218,0Zm279.586,311.697l0,-55.363c0,-2.584 1.292,-3.876 3.876,-3.876l24.359,0c12.18,0 18.27,6.09 18.27,18.27l0,40.969c0,28.789 -15.501,43.184 -46.505,43.184l-128.443,0c-31.004,0 -46.506,-15.502 -46.506,-46.506l0,-261.316l-18.823,4.983c-2.953,0.738 -4.799,-0.369 -5.537,-3.322c-0.738,-2.952 0.369,-4.798 3.322,-5.536l21.038,-5.536l0,-83.046l-11.072,0c-2.953,0 -4.43,-1.476 -4.43,-4.429c0,-2.952 1.477,-4.429 4.43,-4.429l32.664,0c12.18,0 18.27,6.09 18.27,18.27l0,62.561l37.094,-9.965l0,-122.354l-12.734,0c-2.953,0 -4.429,-1.476 -4.429,-4.429c0,-2.953 1.476,-4.429 4.429,-4.429l39.308,0c13.287,0 19.931,6.644 19.931,19.931l0,98.547l63.114,-17.163l3.876,-0.553c13.287,-3.322 20.115,1.845 20.484,15.501l0,142.285c0,31.003 -15.501,46.505 -46.505,46.505l-29.896,0c-2.953,0 -4.429,-1.476 -4.429,-4.429c0,-2.953 1.476,-4.429 4.429,-4.429l4.982,0c15.133,0 22.699,-12.549 22.699,-37.647l0,-141.177l-38.754,10.519l0,215.364c0,13.287 -6.644,19.931 -19.931,19.931l-26.574,0l0,-222.562l-37.094,9.966l0,272.388c0,25.099 11.442,37.648 34.325,37.648l66.99,0c22.515,0 33.772,-11.442 33.772,-34.326Z" style="fill:#fff;fill-rule:nonzero;"/><path d="M448.562,303.392c12.549,-59.792 21.592,-122.538 27.128,-188.236l-37.647,0c-2.953,0 -4.429,-1.476 -4.429,-4.429c0,-2.953 1.476,-4.429 4.429,-4.429l38.201,0c2.584,-31.742 4.245,-64.222 4.983,-97.44l-12.18,0c-2.953,0 -4.429,-1.476 -4.429,-4.429c0,-2.953 1.476,-4.429 4.429,-4.429l38.201,0c12.18,0 17.531,6.09 16.055,18.27c-3.691,31.742 -7.566,61.084 -11.626,88.028l57.024,0c12.918,0 19.193,6.459 18.824,19.377c-2.584,82.307 -15.133,152.435 -37.647,210.382c-3.691,9.965 -7.936,19.377 -12.734,28.235c17.716,15.502 33.403,30.819 47.059,45.952c3.322,3.691 3.875,6.459 1.661,8.304c-2.215,2.215 -4.983,1.477 -8.305,-2.214c-13.287,-14.764 -28.235,-29.343 -44.844,-43.737c-21.777,40.231 -52.042,73.633 -90.796,100.208c-3.691,2.583 -6.459,2.768 -8.305,0.553c-1.476,-1.476 -1.107,-3.506 1.107,-6.09c31.373,-33.587 55.364,-72.341 71.973,-116.263c-17.347,-14.026 -35.986,-27.866 -55.917,-41.523c-2.215,-1.476 -2.953,-3.506 -2.215,-6.09Zm62.007,-188.236c-13.656,85.998 -30.634,149.297 -50.934,189.897c18.085,12.18 34.879,24.545 50.381,37.094c2.583,-7.751 4.982,-15.502 7.197,-23.253c15.871,-55.364 24.729,-123.276 26.575,-203.738l-33.219,0Zm279.586,311.697l0,-55.364c0,-2.583 1.292,-3.875 3.876,-3.875l24.36,0c12.18,0 18.27,6.09 18.27,18.27l0,40.969c0,28.789 -15.502,43.184 -46.506,43.184l-128.443,0c-31.004,0 -46.506,-15.502 -46.506,-46.506l0,-261.316l-18.823,4.983c-2.953,0.738 -4.798,-0.369 -5.536,-3.322c-0.739,-2.953 0.369,-4.798 3.321,-5.536l21.038,-5.537l0,-83.045l-11.072,0c-2.953,0 -4.429,-1.476 -4.429,-4.429c0,-2.953 1.476,-4.429 4.429,-4.429l32.664,0c12.18,0 18.27,6.09 18.27,18.27l0,62.561l37.094,-9.966l0,-122.353l-12.734,0c-2.953,0 -4.429,-1.477 -4.429,-4.429c0,-2.953 1.476,-4.429 4.429,-4.429l39.308,0c13.288,0 19.931,6.643 19.931,19.931l0,98.547l63.115,-17.163l3.875,-0.554c13.287,-3.322 20.116,1.846 20.485,15.502l0,142.284c0,31.004 -15.502,46.506 -46.506,46.506l-29.896,0c-2.953,0 -4.429,-1.477 -4.429,-4.429c0,-2.953 1.476,-4.429 4.429,-4.429l4.983,0c15.132,0 22.699,-12.549 22.699,-37.648l0,-141.177l-38.755,10.519l0,215.365c0,13.287 -6.643,19.931 -19.931,19.931l-26.574,0l0,-222.562l-37.094,9.965l0,272.389c0,25.098 11.442,37.647 34.326,37.647l66.99,0c22.514,0 33.771,-11.441 33.771,-34.325Z" style="fill:#fff;fill-rule:nonzero;"/><path d="M406.193,737.907c40.231,-70.496 68.097,-148.743 83.599,-234.741l-13.287,0c-2.953,0 -4.429,-1.477 -4.429,-4.429c0,-2.953 1.476,-4.429 4.429,-4.429l47.612,0c13.657,0 19.009,6.643 16.056,19.93c-9.227,35.433 -20.669,67.913 -34.325,97.44l0,337.164c0,13.657 -6.829,20.485 -20.485,20.485l-28.235,0l0,-275.157c-13.657,18.085 -28.42,34.51 -44.291,49.273c-3.322,3.322 -5.906,4.245 -7.751,2.769c-1.846,-1.477 -1.477,-4.245 1.107,-8.305Zm354.88,182.7l0,-63.115c0,-2.583 1.292,-3.875 3.876,-3.875l26.021,0c12.549,0 18.823,6.274 18.823,18.824l0,48.166c0,28.789 -15.501,43.183 -46.505,43.183l-157.232,0c-31.004,0 -46.506,-15.501 -46.506,-46.505l0,-262.423l-33.772,7.751c-2.952,0.738 -4.798,-0.369 -5.536,-3.322c-0.738,-2.953 0.369,-4.798 3.322,-5.536l35.986,-8.305l0,-81.938l-11.626,0c-2.953,0 -4.429,-1.476 -4.429,-4.429c0,-2.953 1.476,-4.429 4.429,-4.429l34.879,0c12.549,0 18.823,6.274 18.823,18.823l0,62.561l44.845,-9.965l0,-122.907l-14.395,0c-2.952,0 -4.429,-1.477 -4.429,-4.429c0,-2.953 1.477,-4.429 4.429,-4.429l44.291,0c14.026,0 21.038,7.012 21.038,21.038l0,99.1l71.973,-16.609l4.429,-1.107c13.656,-2.584 20.669,3.137 21.038,17.163l0,128.443c0,31.004 -15.502,46.506 -46.505,46.506l-37.647,0c-2.953,0 -4.429,-1.477 -4.429,-4.429c0,-2.953 1.476,-4.43 4.429,-4.43l10.519,0c15.132,0 22.699,-12.549 22.699,-37.647l0,-129.55l-46.506,11.072l0,212.596c0,14.026 -7.012,21.038 -21.038,21.038l-29.896,0l0,-222.561l-44.845,10.519l0,271.835c0,25.098 11.258,37.647 33.772,37.647l91.904,0c22.514,0 33.771,-11.442 33.771,-34.325Z" style="fill:#fff;fill-rule:nonzero;"/></g><g><path d="M955.946,792.705l0,-374.257c0,-2.584 1.292,-3.876 3.876,-3.876l135.087,0c14.025,0 21.038,7.013 21.038,21.039l0,326.644c0,14.026 -7.013,21.039 -21.038,21.039l-29.897,0l0,-57.025l-66.989,0l0,47.613c0,12.549 -6.275,18.823 -18.824,18.823l-23.253,0Zm42.077,-220.9l0,145.606l66.989,0l0,-145.606l-66.989,0Zm0,-148.374l0,139.516l66.989,0l0,-139.516l-66.989,0Zm3.875,-78.063c7.013,-11.442 17.163,-17.163 30.45,-17.163c13.287,0 23.437,5.721 30.45,17.163c4.429,7.382 6.644,15.686 6.644,24.914c0,2.583 -1.292,3.875 -3.876,3.875l-66.436,0c-2.584,0 -3.876,-1.292 -3.876,-3.875c0,-9.228 2.215,-17.532 6.644,-24.914Zm276.264,317.787l0,-244.154l-73.633,0c-16.979,33.219 -39.493,61.639 -67.544,85.26c-4.429,3.691 -7.382,4.798 -8.858,3.322c-1.846,-1.476 -1.476,-4.429 1.107,-8.858c31.373,-52.78 49.089,-109.989 53.149,-171.627l-14.394,0c-2.953,0 -4.429,-1.476 -4.429,-4.429c0,-2.953 1.476,-4.429 4.429,-4.429l47.612,0c13.657,0 19.378,6.828 17.163,20.484c-5.905,25.837 -13.841,49.643 -23.806,71.419l100.761,0c14.395,0 21.592,7.198 21.592,21.592l0,238.617c0,47.982 -6.828,79.539 -20.484,94.672c-13.288,15.501 -34.141,23.252 -62.561,23.252l-53.149,0c-2.953,0 -4.429,-1.476 -4.429,-4.429c0,-2.953 1.476,-4.429 4.429,-4.429l30.45,0c17.347,0 30.45,-6.828 39.308,-20.484c8.858,-13.288 13.287,-45.214 13.287,-95.779Zm-97.44,-105.745c5.537,-5.536 11.996,-8.304 19.378,-8.304c7.381,0 13.84,2.768 19.377,8.304c5.536,5.537 8.304,11.996 8.304,19.378c0,7.381 -2.768,13.84 -8.304,19.377c-5.537,5.536 -11.996,8.304 -19.377,8.304c-7.382,0 -13.841,-2.768 -19.378,-8.304c-5.536,-5.537 -8.304,-11.996 -8.304,-19.377c0,-7.382 2.768,-13.841 8.304,-19.378Z" style="fill:#fff;fill-rule:nonzero;"/><path d="M1533.13,386.891l119.585,0c2.953,0 4.429,1.476 4.429,4.429c0,2.952 -1.476,4.429 -4.429,4.429l-119.585,0c-2.953,0 -4.429,-1.477 -4.429,-4.429c0,-2.953 1.476,-4.429 4.429,-4.429Zm9.965,50.38l99.101,0c2.953,0 4.429,1.477 4.429,4.429c0,2.953 -1.476,4.43 -4.429,4.43l-99.101,0c-2.953,0 -4.429,-1.477 -4.429,-4.43c0,-2.952 1.476,-4.429 4.429,-4.429Zm0,47.613l99.101,0c2.953,0 4.429,1.476 4.429,4.429c0,2.953 -1.476,4.429 -4.429,4.429l-99.101,0c-2.953,0 -4.429,-1.476 -4.429,-4.429c0,-2.953 1.476,-4.429 4.429,-4.429Zm-2.768,53.703c0,-2.584 1.292,-3.876 3.875,-3.876l85.814,0c12.918,0 19.377,6.459 19.377,19.377l0,46.506c0,12.918 -6.459,19.377 -19.377,19.377l-89.689,0l0,-81.384Zm35.433,4.982l0,67.544l29.342,0l0,-67.544l-29.342,0Zm-8.305,-205.952c6.275,-9.965 14.948,-14.948 26.021,-14.948c11.073,0 19.746,4.983 26.021,14.948c3.691,5.905 5.536,12.734 5.536,20.485c0,2.583 -1.292,3.875 -3.875,3.875l-55.364,0c-2.583,0 -3.875,-1.292 -3.875,-3.875c0,-7.751 1.845,-14.58 5.536,-20.485Zm191.558,253.011c3.691,-3.321 7.935,-4.982 12.734,-4.982c4.798,0 9.042,1.661 12.733,4.982c3.322,3.691 4.983,7.936 4.983,12.734c0,4.798 -1.661,9.043 -4.983,12.734c-3.691,3.321 -7.935,4.982 -12.733,4.982c-4.799,0 -9.043,-1.661 -12.734,-4.982c-3.322,-3.691 -4.983,-7.936 -4.983,-12.734c0,-4.798 1.661,-9.043 4.983,-12.734Zm-47.059,0c3.691,-3.321 7.935,-4.982 12.734,-4.982c4.798,0 9.042,1.661 12.733,4.982c3.322,3.691 4.983,7.936 4.983,12.734c0,4.798 -1.661,9.043 -4.983,12.734c-3.691,3.321 -7.935,4.982 -12.733,4.982c-4.799,0 -9.043,-1.661 -12.734,-4.982c-3.322,-3.691 -4.983,-7.936 -4.983,-12.734c0,-4.798 1.661,-9.043 4.983,-12.734Zm-47.613,0c3.691,-3.321 7.936,-4.982 12.734,-4.982c4.798,0 9.043,1.661 12.734,4.982c3.321,3.691 4.982,7.936 4.982,12.734c0,4.798 -1.661,9.043 -4.982,12.734c-3.691,3.321 -7.936,4.982 -12.734,4.982c-4.798,0 -9.043,-1.661 -12.734,-4.982c-3.322,-3.691 -4.982,-7.936 -4.982,-12.734c0,-4.798 1.66,-9.043 4.982,-12.734Zm117.371,-169.966c-25.098,44.291 -57.947,83.599 -98.547,117.925l50.934,0c0.369,-4.798 1.661,-9.228 3.876,-13.288c5.167,-8.489 12.549,-12.733 22.145,-12.733c9.597,0 16.794,4.244 21.592,12.733c3.322,5.168 4.983,11.258 4.983,18.27c0,2.584 -1.292,3.876 -3.876,3.876l-113.495,0c-11.811,0 -13.841,-4.429 -6.09,-13.287c18.824,-21.777 34.51,-43.922 47.059,-66.437l-40.969,0c-11.811,0 -14.948,-5.351 -9.412,-16.055c15.133,-32.111 26.021,-67.359 32.665,-105.744l-12.18,0c-2.953,0 -4.429,-1.477 -4.429,-4.43c0,-2.952 1.476,-4.429 4.429,-4.429l43.183,0c12.918,0 17.348,6.09 13.288,18.27c-12.919,38.755 -33.403,73.265 -61.454,103.53l39.862,0c8.12,-15.502 14.948,-31.188 20.484,-47.059l-12.18,0c-2.952,0 -4.429,-1.476 -4.429,-4.429c0,-2.953 1.477,-4.429 4.429,-4.429l47.613,0c13.656,0 17.163,5.905 10.519,17.716Zm-256.887,0c-25.467,44.66 -58.501,83.968 -99.101,117.925l50.381,0c0.369,-4.798 1.661,-9.228 3.876,-13.288c5.167,-8.489 12.549,-12.733 22.145,-12.733c9.596,0 16.794,4.244 21.592,12.733c3.322,5.168 4.983,11.258 4.983,18.27c0,2.584 -1.292,3.876 -3.876,3.876l-111.834,0c-11.442,0 -13.287,-4.245 -5.537,-12.734c19.562,-21.776 35.987,-44.106 49.274,-66.99l-42.63,0c-11.811,0 -14.579,-4.982 -8.304,-14.948c18.085,-32.849 31.188,-68.466 39.308,-106.851l-10.519,0c-2.953,0 -4.43,-1.477 -4.43,-4.43c0,-2.952 1.477,-4.429 4.43,-4.429l38.2,0c12.18,0 16.056,5.721 11.627,17.163c-14.026,39.493 -35.987,74.372 -65.883,104.637l43.184,0c8.489,-15.133 15.502,-30.45 21.038,-45.952l-11.073,0c-2.953,0 -4.429,-1.476 -4.429,-4.429c0,-2.952 1.476,-4.429 4.429,-4.429l43.184,0c12.918,0 16.24,5.537 9.965,16.609Zm-27.682,169.966c3.691,-3.321 7.936,-4.982 12.734,-4.982c4.798,0 9.043,1.661 12.734,4.982c3.321,3.691 4.982,7.936 4.982,12.734c0,4.798 -1.661,9.043 -4.982,12.734c-3.691,3.321 -7.936,4.982 -12.734,4.982c-4.798,0 -9.043,-1.661 -12.734,-4.982c-3.321,-3.691 -4.982,-7.936 -4.982,-12.734c0,-4.798 1.661,-9.043 4.982,-12.734Zm-47.612,0c3.691,-3.321 7.935,-4.982 12.733,-4.982c4.799,0 9.043,1.661 12.734,4.982c3.322,3.691 4.983,7.936 4.983,12.734c0,4.798 -1.661,9.043 -4.983,12.734c-3.691,3.321 -7.935,4.982 -12.734,4.982c-4.798,0 -9.042,-1.661 -12.733,-4.982c-3.322,-3.691 -4.983,-7.936 -4.983,-12.734c0,-4.798 1.661,-9.043 4.983,-12.734Zm-47.613,0c3.691,-3.321 7.936,-4.982 12.734,-4.982c4.798,0 9.042,1.661 12.733,4.982c3.322,3.691 4.983,7.936 4.983,12.734c0,4.798 -1.661,9.043 -4.983,12.734c-3.691,3.321 -7.935,4.982 -12.733,4.982c-4.798,0 -9.043,-1.661 -12.734,-4.982c-3.322,-3.691 -4.983,-7.936 -4.983,-12.734c0,-4.798 1.661,-9.043 4.983,-12.734Zm266.852,158.894l0,-33.772c0,-2.584 1.292,-3.875 3.876,-3.875l24.913,0c13.288,0 19.931,6.643 19.931,19.93l0,17.717c0,28.789 -15.501,43.183 -46.505,43.183l-117.924,0c-31.004,0 -46.506,-15.501 -46.506,-46.505l0,-86.367l-12.733,0c-2.953,0 -4.43,-1.476 -4.43,-4.429c0,-2.953 1.477,-4.429 4.43,-4.429l39.308,0c13.287,0 19.931,6.643 19.931,19.931l0,75.294c0,25.098 11.257,37.647 33.771,37.647l48.167,0c22.514,0 33.771,-11.442 33.771,-34.325Zm-72.526,-90.796c5.167,-5.168 11.442,-7.751 18.824,-7.751c7.012,0 13.287,2.583 18.823,7.751c5.168,5.167 7.751,11.441 7.751,18.823c0,7.013 -2.583,13.287 -7.751,18.824c-5.536,5.167 -11.811,7.751 -18.823,7.751c-7.382,0 -13.657,-2.584 -18.824,-7.751c-5.167,-5.537 -7.751,-11.811 -7.751,-18.824c0,-7.382 2.584,-13.656 7.751,-18.823Zm133.98,7.197c2.584,-1.476 4.983,-0.554 7.197,2.768c20.3,31.742 36.171,66.067 47.613,102.976c1.476,4.06 0.923,6.644 -1.661,7.751c-2.953,1.107 -5.167,-0.369 -6.644,-4.429c-11.442,-36.909 -27.128,-70.865 -47.059,-101.869c-2.214,-3.322 -2.03,-5.721 0.554,-7.197Zm-312.804,4.429l40.415,0c12.549,0 16.794,5.905 12.734,17.716c-11.442,34.695 -34.326,64.591 -68.651,89.689c-3.691,2.953 -6.274,3.691 -7.751,2.215c-1.845,-1.477 -1.476,-4.06 1.107,-7.751c15.133,-25.467 26.206,-56.471 33.219,-93.011l-11.073,0c-2.953,0 -4.429,-1.476 -4.429,-4.429c0,-2.953 1.476,-4.429 4.429,-4.429Z" style="fill:#fff;fill-rule:nonzero;"/><path d="M1871.39,353.119c0,-2.953 2.215,-4.429 6.644,-4.429c112.573,0.369 220.531,-8.305 323.877,-26.021c5.167,-0.738 8.12,0.369 8.858,3.322c0.369,2.583 -1.476,4.429 -5.536,5.536c-104.084,17.347 -212.781,26.021 -326.092,26.021c-5.167,0 -7.751,-1.476 -7.751,-4.429Zm40.969,42.076c6.275,-9.596 14.949,-14.394 26.021,-14.394c11.073,0 19.747,4.798 26.021,14.394c3.691,6.275 5.537,13.287 5.537,21.038c0,2.584 -1.292,3.876 -3.876,3.876l-55.363,0c-2.584,0 -3.876,-1.292 -3.876,-3.876c0,-7.751 1.846,-14.763 5.536,-21.038Zm102.977,0c6.274,-9.596 14.948,-14.394 26.02,-14.394c11.073,0 19.747,4.798 26.021,14.394c3.691,6.275 5.537,13.287 5.537,21.038c0,2.584 -1.292,3.876 -3.876,3.876l-55.363,0c-2.584,0 -3.876,-1.292 -3.876,-3.876c0,-7.751 1.846,-14.763 5.537,-21.038Zm104.637,0c6.274,-9.596 14.948,-14.394 26.021,-14.394c11.072,0 19.746,4.798 26.02,14.394c3.691,6.275 5.537,13.287 5.537,21.038c0,2.584 -1.292,3.876 -3.876,3.876l-55.363,0c-2.584,0 -3.876,-1.292 -3.876,-3.876c0,-7.751 1.846,-14.763 5.537,-21.038Zm-259.655,47.059l347.129,0c14.395,0 21.592,7.197 21.592,21.592l0,24.914c0,14.394 -7.197,21.591 -21.592,21.591l-31.557,0l0,-59.239l-275.157,0l0,39.862c0,12.918 -6.459,19.377 -19.377,19.377l-24.914,0l0,-64.221c0,-2.584 1.292,-3.876 3.876,-3.876Zm238.063,65.883l25.467,0c12.918,0 19.377,6.459 19.377,19.377l0,8.305c0,28.419 -15.501,42.629 -46.505,42.629l-80.277,0c-9.966,17.348 -21.038,33.034 -33.218,47.059l177.717,0c14.394,0 17.716,6.09 9.965,18.27c-25.836,37.648 -59.977,67.729 -102.422,90.243c47.981,22.145 103.16,37.463 165.537,45.952c4.798,0.369 6.828,2.03 6.09,4.982c-0.739,2.953 -3.876,3.876 -9.412,2.769c-65.329,-8.859 -122.538,-25.098 -171.627,-48.72c-5.167,2.583 -10.519,4.982 -16.056,7.197c-54.994,23.253 -118.662,37.278 -191.004,42.076c-4.798,0 -7.382,-1.292 -7.751,-3.875c-0.369,-2.584 1.661,-4.245 6.09,-4.983c68.282,-12.18 124.568,-30.634 168.859,-55.363l6.09,-3.322c-29.158,-17.347 -54.994,-37.832 -77.509,-61.454c-24.729,19.562 -52.78,34.51 -84.152,44.845c-4.43,1.476 -7.198,1.107 -8.305,-1.108c-1.107,-2.214 0.185,-4.429 3.875,-6.643c46.875,-30.266 81.754,-69.574 104.638,-117.925l-8.859,0l0,-90.242l-12.18,0c-2.952,0 -4.429,-1.476 -4.429,-4.429c0,-2.953 1.477,-4.429 4.429,-4.429l37.094,0c12.918,0 19.377,6.459 19.377,19.377l0,70.865l61.454,0c22.514,0 33.772,-11.257 33.772,-33.771l0,-23.807c0,-2.583 1.291,-3.875 3.875,-3.875Zm19.931,126.229l-143.392,0c-6.643,7.012 -13.472,13.471 -20.484,19.377c22.883,23.622 49.273,44.291 79.17,62.007c34.694,-22.145 62.929,-49.274 84.706,-81.384Zm-193.219,-135.641c2.953,1.107 3.875,3.322 2.768,6.644c-12.549,32.11 -31.557,58.316 -57.024,78.616c-3.322,2.583 -5.906,2.768 -7.751,0.553c-1.846,-2.583 -1.107,-4.982 2.214,-7.197c24.36,-19.193 42.261,-44.291 53.703,-75.294c1.476,-3.322 3.506,-4.429 6.09,-3.322Zm106.298,-15.502c4.429,-4.429 9.596,-6.643 15.502,-6.643c5.905,0 11.073,2.214 15.502,6.643c4.429,4.429 6.643,9.597 6.643,15.502c0,5.905 -2.214,11.073 -6.643,15.502c-4.429,4.429 -9.597,6.643 -15.502,6.643c-5.906,0 -11.073,-2.214 -15.502,-6.643c-4.429,-4.429 -6.644,-9.597 -6.644,-15.502c0,-5.905 2.215,-11.073 6.644,-15.502Zm138.409,53.703c4.429,-4.429 9.596,-6.644 15.502,-6.644c5.905,0 11.072,2.215 15.502,6.644c4.429,4.429 6.643,9.596 6.643,15.502c0,5.905 -2.214,11.072 -6.643,15.501c-4.43,4.429 -9.597,6.644 -15.502,6.644c-5.906,0 -11.073,-2.215 -15.502,-6.644c-4.429,-4.429 -6.644,-9.596 -6.644,-15.501c0,-5.906 2.215,-11.073 6.644,-15.502Z" style="fill:#fff;fill-rule:nonzero;"/><path d="M2441.3,333.742c7.012,-11.442 17.162,-17.163 30.45,-17.163c13.287,0 23.437,5.721 30.449,17.163c4.43,7.381 6.644,15.686 6.644,24.913c0,2.584 -1.292,3.876 -3.875,3.876l-66.437,0c-2.583,0 -3.875,-1.292 -3.875,-3.876c0,-9.227 2.215,-17.532 6.644,-24.913Zm-146.16,53.702l343.254,0c14.394,0 21.592,7.197 21.592,21.592l0,39.862c0,14.394 -7.198,21.592 -21.592,21.592l-31.557,0l0,-74.188l-271.282,0l0,57.578c0,12.919 -6.459,19.378 -19.377,19.378l-24.914,0l0,-81.938c0,-2.584 1.292,-3.876 3.876,-3.876Zm-8.305,136.195l235.295,0l0,-72.527l-14.948,0c-2.953,0 -4.429,-1.476 -4.429,-4.429c0,-2.953 1.476,-4.429 4.429,-4.429l46.506,0c14.394,0 21.591,7.197 21.591,21.592l0,59.793l83.599,0c2.953,0 4.429,1.476 4.429,4.429c0,2.952 -1.476,4.429 -4.429,4.429l-83.599,0l0,197.648c0,39.861 -17.901,59.792 -53.702,59.792l-80.831,0c-2.953,0 -4.429,-1.476 -4.429,-4.429c0,-2.953 1.476,-4.429 4.429,-4.429l43.184,0c25.467,0 38.2,-16.978 38.2,-50.934l0,-197.648l-235.295,0c-2.952,0 -4.429,-1.477 -4.429,-4.429c0,-2.953 1.477,-4.429 4.429,-4.429Zm76.956,81.384c5.905,-5.536 12.733,-8.305 20.484,-8.305c7.751,0 14.579,2.769 20.485,8.305c5.536,5.905 8.304,12.734 8.304,20.484c0,7.751 -2.768,14.58 -8.304,20.485c-5.906,5.536 -12.734,8.305 -20.485,8.305c-7.751,0 -14.579,-2.769 -20.484,-8.305c-5.537,-5.905 -8.305,-12.734 -8.305,-20.485c0,-7.75 2.768,-14.579 8.305,-20.484Z" style="fill:#fff;fill-rule:nonzero;"/><path d="M2740.35,360.316c0,-2.584 1.292,-3.875 3.876,-3.875l157.786,0c13.656,0 20.484,6.828 20.484,20.484l0,274.05c0,13.656 -6.828,20.484 -20.484,20.484l-161.662,0l0,-311.143Zm133.427,209.828l-93.565,0l0,92.457l93.565,0l0,-92.457Zm-93.565,-8.858l93.565,0l0,-91.904l-93.565,0l0,91.904Zm0,-195.987l0,95.225l93.565,0l0,-95.225l-93.565,0Zm-22.699,334.949l47.613,0c13.287,0 16.609,5.721 9.965,17.163c-22.145,35.433 -52.964,61.638 -92.457,78.616c-4.429,2.215 -7.382,2.399 -8.858,0.554c-1.107,-1.846 0,-4.245 3.322,-7.197c27.312,-27.682 45.398,-54.441 54.256,-80.278l-13.841,0c-2.953,0 -4.429,-1.476 -4.429,-4.429c0,-2.952 1.476,-4.429 4.429,-4.429Zm119.032,25.467c4.798,-4.798 10.519,-7.197 17.162,-7.197c6.644,0 12.365,2.399 17.163,7.197c4.798,4.799 7.197,10.52 7.197,17.163c0,6.644 -2.399,12.365 -7.197,17.163c-4.798,4.798 -10.519,7.197 -17.163,7.197c-6.643,0 -12.364,-2.399 -17.162,-7.197c-4.798,-4.798 -7.198,-10.519 -7.198,-17.163c0,-6.643 2.4,-12.364 7.198,-17.163Zm175.502,8.305l0,-396.957l-14.948,0c-2.953,0 -4.429,-1.476 -4.429,-4.429c0,-2.952 1.476,-4.429 4.429,-4.429l46.505,0c14.395,0 21.592,7.197 21.592,21.592l0,384.223c0,38.755 -16.793,58.132 -50.381,58.132l-76.955,0c-2.953,0 -4.429,-1.477 -4.429,-4.429c0,-2.953 1.476,-4.429 4.429,-4.429l38.754,0c23.622,0 35.433,-16.425 35.433,-49.274Zm-62.561,-344.915c12.918,0 19.378,6.459 19.378,19.377l0,264.638c0,12.918 -6.46,19.377 -19.378,19.377l-24.913,0l0,-294.534l-12.18,0c-3.322,0 -4.983,-1.476 -4.983,-4.429c0,-2.953 1.661,-4.429 4.983,-4.429l37.093,0Z" style="fill:#fff;fill-rule:nonzero;"/></g></g></svg>