<?xml version="1.0" encoding="UTF-8" standalone="no"?>
<!DOCTYPE svg PUBLIC "-//W3C//DTD SVG 1.1//EN" "http://www.w3.org/Graphics/SVG/1.1/DTD/svg11.dtd">
<svg width="100%" height="100%" viewBox="0 0 359 59" version="1.1" xmlns="http://www.w3.org/2000/svg" xmlns:xlink="http://www.w3.org/1999/xlink" xml:space="preserve" xmlns:serif="http://www.serif.com/" style="fill-rule:evenodd;clip-rule:evenodd;stroke-linejoin:round;stroke-miterlimit:2;">
    <g transform="matrix(1,0,0,1,-5008.64,-59.0181)">
        <g transform="matrix(1,0,0,3.30665,0,0)">
            <g transform="matrix(1.05683,0,0,0.319606,3807.21,-32.8292)">
                <g transform="matrix(27.9784,0,0,27.9784,1209.8,212.132)">
                    <path d="M0.308,-0.495L0.308,0.027C0.308,0.052 0.296,0.064 0.271,0.064L0.22,0.064L0.22,-0.302C0.187,-0.229 0.146,-0.167 0.096,-0.115C0.09,-0.109 0.085,-0.107 0.082,-0.11C0.079,-0.112 0.079,-0.117 0.084,-0.125C0.143,-0.237 0.183,-0.36 0.202,-0.495L0.099,-0.495C0.094,-0.495 0.091,-0.498 0.091,-0.503C0.091,-0.508 0.094,-0.511 0.099,-0.511L0.22,-0.511L0.22,-0.718C0.189,-0.715 0.158,-0.712 0.127,-0.71C0.118,-0.709 0.114,-0.712 0.114,-0.717C0.113,-0.722 0.117,-0.725 0.125,-0.726C0.22,-0.731 0.31,-0.744 0.397,-0.763C0.406,-0.766 0.411,-0.764 0.412,-0.759C0.414,-0.754 0.411,-0.75 0.403,-0.749C0.372,-0.742 0.34,-0.735 0.308,-0.73L0.308,-0.511L0.423,-0.511C0.428,-0.511 0.431,-0.508 0.431,-0.503C0.431,-0.498 0.428,-0.495 0.423,-0.495L0.308,-0.495ZM0.34,-0.365C0.349,-0.373 0.359,-0.377 0.37,-0.377C0.381,-0.377 0.391,-0.373 0.4,-0.365C0.408,-0.356 0.412,-0.346 0.412,-0.335C0.412,-0.324 0.408,-0.314 0.4,-0.305C0.391,-0.297 0.381,-0.293 0.37,-0.293C0.359,-0.293 0.349,-0.297 0.34,-0.305C0.332,-0.314 0.328,-0.324 0.328,-0.335C0.328,-0.346 0.332,-0.356 0.34,-0.365ZM0.64,-0.231L0.64,-0.756L0.613,-0.756C0.608,-0.756 0.605,-0.759 0.605,-0.764C0.605,-0.769 0.608,-0.772 0.613,-0.772L0.697,-0.772C0.723,-0.772 0.736,-0.759 0.736,-0.733L0.736,-0.245L0.808,-0.255C0.813,-0.256 0.817,-0.253 0.818,-0.248C0.819,-0.243 0.816,-0.24 0.81,-0.239L0.736,-0.228L0.736,0.025C0.736,0.051 0.723,0.064 0.697,0.064L0.64,0.064L0.64,-0.214L0.404,-0.18C0.397,-0.179 0.393,-0.182 0.393,-0.187C0.392,-0.192 0.395,-0.195 0.401,-0.196L0.64,-0.231ZM0.482,-0.664C0.492,-0.674 0.504,-0.679 0.517,-0.679C0.53,-0.679 0.542,-0.674 0.552,-0.664C0.562,-0.654 0.567,-0.642 0.567,-0.629C0.567,-0.616 0.562,-0.604 0.552,-0.594C0.542,-0.584 0.53,-0.579 0.517,-0.579C0.504,-0.579 0.492,-0.584 0.482,-0.594C0.472,-0.604 0.467,-0.616 0.467,-0.629C0.467,-0.642 0.472,-0.654 0.482,-0.664ZM0.482,-0.445C0.492,-0.455 0.504,-0.46 0.517,-0.46C0.53,-0.46 0.542,-0.455 0.552,-0.445C0.562,-0.435 0.567,-0.423 0.567,-0.41C0.567,-0.397 0.562,-0.385 0.552,-0.375C0.542,-0.365 0.53,-0.36 0.517,-0.36C0.504,-0.36 0.492,-0.365 0.482,-0.375C0.472,-0.385 0.467,-0.397 0.467,-0.41C0.467,-0.423 0.472,-0.435 0.482,-0.445Z" style="fill:white;fill-rule:nonzero;"/>
                </g>
                <g transform="matrix(27.9784,0,0,27.9784,1234.99,212.132)">
                    <path d="M0.106,0.047C0.267,-0.082 0.363,-0.264 0.392,-0.499L0.127,-0.499C0.122,-0.499 0.119,-0.502 0.119,-0.507C0.119,-0.512 0.122,-0.515 0.127,-0.515L0.394,-0.515C0.399,-0.558 0.401,-0.604 0.402,-0.651L0.402,-0.768L0.375,-0.768C0.37,-0.768 0.367,-0.771 0.367,-0.776C0.367,-0.781 0.37,-0.784 0.375,-0.784L0.459,-0.784C0.485,-0.784 0.498,-0.771 0.498,-0.745L0.498,-0.651C0.497,-0.604 0.495,-0.558 0.49,-0.515L0.777,-0.515C0.782,-0.515 0.785,-0.512 0.785,-0.507C0.785,-0.502 0.782,-0.499 0.777,-0.499L0.498,-0.499C0.508,-0.389 0.537,-0.289 0.586,-0.199C0.636,-0.106 0.706,-0.024 0.797,0.048C0.802,0.053 0.803,0.057 0.799,0.061C0.796,0.065 0.791,0.065 0.785,0.06C0.693,-0.013 0.622,-0.097 0.571,-0.192C0.525,-0.278 0.496,-0.373 0.484,-0.477C0.445,-0.222 0.323,-0.043 0.116,0.06C0.108,0.064 0.103,0.064 0.1,0.06C0.097,0.056 0.099,0.052 0.106,0.047Z" style="fill:white;fill-rule:nonzero;"/>
                </g>
                <g transform="matrix(27.9784,0,0,27.9784,1260.17,212.132)">
                    <path d="M0.474,-0.276C0.482,-0.284 0.491,-0.288 0.502,-0.288C0.513,-0.288 0.522,-0.284 0.53,-0.276C0.538,-0.268 0.542,-0.259 0.542,-0.248C0.542,-0.237 0.538,-0.228 0.53,-0.22C0.522,-0.212 0.513,-0.208 0.502,-0.208C0.491,-0.208 0.482,-0.212 0.474,-0.22C0.466,-0.228 0.462,-0.237 0.462,-0.248C0.462,-0.259 0.466,-0.268 0.474,-0.276ZM0.212,-0.388L0.548,-0.388C0.553,-0.388 0.556,-0.385 0.556,-0.38C0.556,-0.375 0.553,-0.372 0.548,-0.372L0.428,-0.372C0.41,-0.349 0.391,-0.329 0.37,-0.311C0.397,-0.288 0.418,-0.263 0.433,-0.234C0.442,-0.218 0.448,-0.2 0.453,-0.179C0.496,-0.143 0.533,-0.107 0.565,-0.072C0.569,-0.067 0.569,-0.062 0.566,-0.059C0.562,-0.055 0.558,-0.055 0.553,-0.06C0.526,-0.091 0.494,-0.122 0.458,-0.153C0.461,-0.134 0.462,-0.113 0.462,-0.09C0.462,-0.042 0.451,-0.006 0.428,0.018C0.405,0.042 0.365,0.054 0.308,0.054L0.27,0.054C0.265,0.054 0.262,0.051 0.262,0.046C0.262,0.041 0.265,0.038 0.27,0.038L0.294,0.038C0.324,0.038 0.346,0.029 0.361,0.012C0.375,-0.005 0.382,-0.039 0.382,-0.09L0.382,-0.109C0.328,-0.064 0.265,-0.028 0.194,-0.003C0.186,0 0.181,-0.002 0.18,-0.007C0.178,-0.012 0.181,-0.016 0.188,-0.018C0.262,-0.044 0.326,-0.081 0.381,-0.129C0.38,-0.164 0.377,-0.193 0.372,-0.218L0.372,-0.22C0.325,-0.177 0.268,-0.143 0.203,-0.119C0.196,-0.116 0.191,-0.117 0.189,-0.122C0.187,-0.127 0.19,-0.13 0.197,-0.133C0.263,-0.158 0.32,-0.193 0.367,-0.238C0.362,-0.256 0.355,-0.274 0.347,-0.293C0.305,-0.262 0.257,-0.239 0.204,-0.225C0.195,-0.222 0.19,-0.223 0.188,-0.227C0.187,-0.232 0.19,-0.236 0.198,-0.239C0.257,-0.273 0.304,-0.317 0.341,-0.372L0.212,-0.372C0.207,-0.372 0.204,-0.375 0.204,-0.38C0.204,-0.385 0.207,-0.388 0.212,-0.388ZM0.519,-0.45L0.335,-0.45C0.297,-0.45 0.278,-0.469 0.278,-0.507L0.278,-0.531L0.217,-0.527C0.21,-0.526 0.206,-0.529 0.206,-0.534C0.205,-0.539 0.208,-0.542 0.215,-0.543L0.278,-0.548L0.278,-0.622L0.182,-0.622L0.182,-0.42C0.182,-0.208 0.154,-0.05 0.098,0.054C0.093,0.061 0.089,0.063 0.085,0.062C0.082,0.061 0.081,0.057 0.082,0.05C0.106,-0.068 0.118,-0.225 0.118,-0.42L0.118,-0.631C0.118,-0.636 0.12,-0.638 0.125,-0.638L0.278,-0.638L0.278,-0.778L0.256,-0.778C0.251,-0.778 0.248,-0.781 0.248,-0.786C0.248,-0.791 0.251,-0.794 0.256,-0.794L0.323,-0.794C0.346,-0.794 0.358,-0.782 0.358,-0.759L0.358,-0.728L0.525,-0.728C0.53,-0.728 0.533,-0.725 0.533,-0.72C0.533,-0.715 0.53,-0.712 0.525,-0.712L0.358,-0.712L0.358,-0.638L0.545,-0.638C0.571,-0.638 0.578,-0.627 0.565,-0.604C0.542,-0.571 0.512,-0.544 0.475,-0.523C0.468,-0.519 0.464,-0.518 0.461,-0.521C0.458,-0.524 0.459,-0.528 0.463,-0.535C0.476,-0.561 0.484,-0.59 0.487,-0.622L0.358,-0.622L0.358,-0.553L0.447,-0.56C0.455,-0.561 0.459,-0.558 0.459,-0.553C0.46,-0.548 0.456,-0.545 0.449,-0.544L0.358,-0.537L0.358,-0.507C0.358,-0.48 0.367,-0.466 0.385,-0.466L0.519,-0.466C0.524,-0.466 0.527,-0.463 0.527,-0.458C0.527,-0.453 0.524,-0.45 0.519,-0.45ZM0.708,-0.051L0.708,-0.768L0.684,-0.768C0.678,-0.768 0.675,-0.771 0.675,-0.776C0.675,-0.781 0.678,-0.784 0.684,-0.784L0.759,-0.784C0.784,-0.784 0.796,-0.772 0.796,-0.747L0.796,-0.051C0.796,0.019 0.766,0.054 0.705,0.054L0.608,0.054C0.603,0.054 0.6,0.051 0.6,0.046C0.6,0.041 0.603,0.038 0.608,0.038L0.644,0.038C0.687,0.038 0.708,0.008 0.708,-0.051ZM0.632,-0.7C0.654,-0.7 0.665,-0.689 0.665,-0.667L0.665,-0.141C0.665,-0.119 0.654,-0.108 0.632,-0.108L0.593,-0.108L0.593,-0.684L0.573,-0.684C0.568,-0.684 0.565,-0.687 0.565,-0.692C0.565,-0.697 0.568,-0.7 0.573,-0.7L0.632,-0.7Z" style="fill:white;fill-rule:nonzero;"/>
                </g>
                <g transform="matrix(27.9784,0,0,27.9784,1285.35,212.132)">
                    <path d="M0.095,-0.65L0.352,-0.65C0.377,-0.65 0.387,-0.638 0.382,-0.613C0.364,-0.537 0.332,-0.47 0.286,-0.411L0.286,-0.391C0.327,-0.354 0.365,-0.317 0.399,-0.28C0.405,-0.273 0.406,-0.268 0.402,-0.265C0.398,-0.261 0.393,-0.262 0.387,-0.268C0.356,-0.302 0.323,-0.335 0.286,-0.368L0.286,0.027C0.286,0.052 0.274,0.064 0.249,0.064L0.198,0.064L0.198,-0.324C0.168,-0.3 0.134,-0.278 0.097,-0.258C0.088,-0.253 0.083,-0.253 0.08,-0.256C0.077,-0.259 0.079,-0.264 0.085,-0.27C0.193,-0.365 0.263,-0.487 0.295,-0.634L0.095,-0.634C0.09,-0.634 0.087,-0.637 0.087,-0.642C0.087,-0.647 0.09,-0.65 0.095,-0.65ZM0.182,-0.763C0.195,-0.784 0.213,-0.794 0.237,-0.794C0.261,-0.794 0.279,-0.784 0.292,-0.763C0.3,-0.75 0.304,-0.735 0.304,-0.718C0.304,-0.713 0.302,-0.711 0.297,-0.711L0.177,-0.711C0.172,-0.711 0.17,-0.713 0.17,-0.718C0.17,-0.735 0.174,-0.75 0.182,-0.763ZM0.81,0.018L0.358,0.018C0.353,0.018 0.35,0.015 0.35,0.01C0.35,0.005 0.353,0.002 0.358,0.002L0.536,0.002L0.536,-0.495L0.402,-0.495C0.397,-0.495 0.394,-0.498 0.394,-0.503C0.394,-0.508 0.397,-0.511 0.402,-0.511L0.536,-0.511L0.536,-0.753L0.509,-0.753C0.504,-0.753 0.501,-0.756 0.501,-0.761C0.501,-0.766 0.504,-0.769 0.509,-0.769L0.593,-0.769C0.619,-0.769 0.632,-0.756 0.632,-0.73L0.632,-0.511L0.774,-0.511C0.779,-0.511 0.782,-0.508 0.782,-0.503C0.782,-0.498 0.779,-0.495 0.774,-0.495L0.632,-0.495L0.632,0.002L0.81,0.002C0.815,0.002 0.818,0.005 0.818,0.01C0.818,0.015 0.815,0.018 0.81,0.018Z" style="fill:white;fill-rule:nonzero;"/>
                </g>
                <g transform="matrix(27.9784,0,0,27.9784,1310.53,212.132)">
                    <path d="M0.696,-0.745C0.722,-0.745 0.735,-0.732 0.735,-0.706L0.735,-0.514C0.735,-0.488 0.722,-0.475 0.696,-0.475L0.676,-0.475L0.676,-0.364L0.798,-0.364C0.803,-0.364 0.806,-0.361 0.806,-0.356C0.806,-0.351 0.803,-0.348 0.798,-0.348L0.676,-0.348L0.676,-0.226L0.774,-0.226C0.779,-0.226 0.782,-0.223 0.782,-0.218C0.782,-0.213 0.779,-0.21 0.774,-0.21L0.498,-0.21L0.498,-0.099L0.754,-0.099C0.759,-0.099 0.762,-0.096 0.762,-0.091C0.762,-0.086 0.759,-0.083 0.754,-0.083L0.498,-0.083L0.498,0.025C0.498,0.051 0.485,0.064 0.459,0.064L0.402,0.064L0.402,-0.083L0.148,-0.083C0.143,-0.083 0.14,-0.086 0.14,-0.091C0.14,-0.096 0.143,-0.099 0.148,-0.099L0.402,-0.099L0.402,-0.21L0.13,-0.21C0.125,-0.21 0.122,-0.213 0.122,-0.218C0.122,-0.223 0.125,-0.226 0.13,-0.226L0.238,-0.226L0.238,-0.348L0.104,-0.348C0.099,-0.348 0.096,-0.351 0.096,-0.356C0.096,-0.361 0.099,-0.364 0.104,-0.364L0.238,-0.364L0.238,-0.475L0.181,-0.475L0.181,-0.738C0.181,-0.743 0.183,-0.745 0.188,-0.745L0.696,-0.745ZM0.498,-0.348L0.498,-0.226L0.58,-0.226L0.58,-0.348L0.498,-0.348ZM0.498,-0.475L0.498,-0.364L0.58,-0.364L0.58,-0.475L0.498,-0.475ZM0.402,-0.226L0.402,-0.348L0.318,-0.348L0.318,-0.226L0.402,-0.226ZM0.402,-0.364L0.402,-0.475L0.318,-0.475L0.318,-0.364L0.402,-0.364ZM0.402,-0.491L0.402,-0.604L0.261,-0.604L0.261,-0.491L0.402,-0.491ZM0.498,-0.604L0.498,-0.491L0.639,-0.491L0.639,-0.604L0.498,-0.604ZM0.402,-0.62L0.402,-0.729L0.261,-0.729L0.261,-0.62L0.402,-0.62ZM0.498,-0.729L0.498,-0.62L0.639,-0.62L0.639,-0.729L0.498,-0.729Z" style="fill:white;fill-rule:nonzero;"/>
                </g>
                <g transform="matrix(27.9784,0,0,27.9784,1335.71,212.132)">
                    <path d="M0.19,-0.732C0.199,-0.74 0.209,-0.744 0.22,-0.744C0.231,-0.744 0.241,-0.74 0.25,-0.732C0.258,-0.723 0.262,-0.713 0.262,-0.702C0.262,-0.691 0.258,-0.681 0.25,-0.672C0.241,-0.664 0.231,-0.66 0.22,-0.66C0.209,-0.66 0.199,-0.664 0.19,-0.672C0.182,-0.681 0.178,-0.691 0.178,-0.702C0.178,-0.713 0.182,-0.723 0.19,-0.732ZM0.653,-0.732C0.662,-0.74 0.672,-0.744 0.683,-0.744C0.694,-0.744 0.704,-0.74 0.713,-0.732C0.721,-0.723 0.725,-0.713 0.725,-0.702C0.725,-0.691 0.721,-0.681 0.713,-0.672C0.704,-0.664 0.694,-0.66 0.683,-0.66C0.672,-0.66 0.662,-0.664 0.653,-0.672C0.645,-0.681 0.641,-0.691 0.641,-0.702C0.641,-0.713 0.645,-0.723 0.653,-0.732ZM0.402,-0.128C0.32,-0.052 0.222,0 0.107,0.027C0.098,0.03 0.092,0.029 0.091,0.024C0.09,0.02 0.092,0.016 0.099,0.013C0.206,-0.038 0.295,-0.105 0.365,-0.19L0.121,-0.19C0.116,-0.19 0.113,-0.193 0.113,-0.198C0.113,-0.203 0.116,-0.206 0.121,-0.206L0.402,-0.206L0.402,-0.319L0.186,-0.319C0.181,-0.319 0.178,-0.322 0.178,-0.327C0.178,-0.332 0.181,-0.335 0.186,-0.335L0.402,-0.335L0.402,-0.438L0.15,-0.438C0.145,-0.438 0.142,-0.441 0.142,-0.446C0.142,-0.451 0.145,-0.454 0.15,-0.454L0.298,-0.454L0.271,-0.592L0.124,-0.592C0.119,-0.592 0.116,-0.595 0.116,-0.6C0.116,-0.605 0.119,-0.608 0.124,-0.608L0.331,-0.608L0.331,-0.769L0.309,-0.769C0.304,-0.769 0.301,-0.772 0.301,-0.777C0.301,-0.782 0.304,-0.785 0.309,-0.785L0.376,-0.785C0.399,-0.785 0.411,-0.773 0.411,-0.75L0.411,-0.608L0.49,-0.608L0.49,-0.769L0.463,-0.769C0.458,-0.769 0.455,-0.772 0.455,-0.777C0.455,-0.782 0.458,-0.785 0.463,-0.785L0.547,-0.785C0.573,-0.785 0.586,-0.772 0.586,-0.746L0.586,-0.608L0.777,-0.608C0.782,-0.608 0.785,-0.605 0.785,-0.6C0.785,-0.595 0.782,-0.592 0.777,-0.592L0.644,-0.592L0.618,-0.454L0.751,-0.454C0.756,-0.454 0.759,-0.451 0.759,-0.446C0.759,-0.441 0.756,-0.438 0.751,-0.438L0.498,-0.438L0.498,-0.335L0.718,-0.335C0.723,-0.335 0.726,-0.332 0.726,-0.327C0.726,-0.322 0.723,-0.319 0.718,-0.319L0.498,-0.319L0.498,-0.206L0.783,-0.206C0.788,-0.206 0.791,-0.203 0.791,-0.198C0.791,-0.193 0.788,-0.19 0.783,-0.19L0.509,-0.19C0.59,-0.106 0.688,-0.038 0.803,0.013C0.81,0.016 0.812,0.02 0.809,0.025C0.806,0.03 0.802,0.03 0.795,0.027C0.678,-0.026 0.579,-0.095 0.498,-0.18L0.498,0.024C0.498,0.05 0.485,0.063 0.459,0.063L0.402,0.063L0.402,-0.128ZM0.548,-0.592L0.351,-0.592L0.378,-0.454L0.522,-0.454L0.548,-0.592Z" style="fill:white;fill-rule:nonzero;"/>
                </g>
                <g transform="matrix(27.9784,0,0,27.9784,1360.89,212.132)">
                    <path d="M0.262,-0.619C0.271,-0.628 0.281,-0.632 0.293,-0.632C0.305,-0.632 0.315,-0.628 0.324,-0.619C0.333,-0.61 0.337,-0.6 0.337,-0.588C0.337,-0.576 0.333,-0.566 0.324,-0.557C0.315,-0.548 0.305,-0.544 0.293,-0.544C0.281,-0.544 0.271,-0.548 0.262,-0.557C0.253,-0.566 0.249,-0.576 0.249,-0.588C0.249,-0.6 0.253,-0.61 0.262,-0.619ZM0.239,-0.44C0.248,-0.449 0.258,-0.453 0.27,-0.453C0.282,-0.453 0.292,-0.449 0.301,-0.44C0.31,-0.431 0.314,-0.421 0.314,-0.409C0.314,-0.397 0.31,-0.387 0.301,-0.378C0.292,-0.369 0.282,-0.365 0.27,-0.365C0.258,-0.365 0.248,-0.369 0.239,-0.378C0.23,-0.387 0.226,-0.397 0.226,-0.409C0.226,-0.421 0.23,-0.431 0.239,-0.44ZM0.224,-0.073C0.265,-0.136 0.3,-0.208 0.33,-0.291C0.333,-0.298 0.337,-0.3 0.342,-0.298C0.347,-0.296 0.348,-0.292 0.346,-0.285C0.315,-0.202 0.279,-0.128 0.238,-0.065C0.234,-0.059 0.23,-0.057 0.225,-0.06C0.22,-0.063 0.22,-0.067 0.224,-0.073ZM0.34,-0.388C0.387,-0.466 0.416,-0.548 0.428,-0.634L0.405,-0.634C0.4,-0.634 0.397,-0.637 0.397,-0.642C0.397,-0.647 0.4,-0.65 0.405,-0.65L0.483,-0.65C0.506,-0.65 0.514,-0.639 0.507,-0.617C0.497,-0.588 0.486,-0.562 0.474,-0.537L0.474,-0.534L0.566,-0.534L0.566,-0.619L0.539,-0.619C0.534,-0.619 0.531,-0.622 0.531,-0.627C0.531,-0.632 0.534,-0.635 0.539,-0.635L0.623,-0.635C0.649,-0.635 0.662,-0.622 0.662,-0.596L0.662,-0.534L0.765,-0.534C0.77,-0.534 0.773,-0.531 0.773,-0.526C0.773,-0.521 0.77,-0.518 0.765,-0.518L0.662,-0.518L0.662,-0.386L0.754,-0.386C0.759,-0.386 0.762,-0.383 0.762,-0.378C0.762,-0.373 0.759,-0.37 0.754,-0.37L0.662,-0.37L0.662,-0.245L0.754,-0.245C0.759,-0.245 0.762,-0.242 0.762,-0.237C0.762,-0.232 0.759,-0.229 0.754,-0.229L0.662,-0.229L0.662,-0.077L0.776,-0.077C0.781,-0.077 0.784,-0.074 0.784,-0.069C0.784,-0.064 0.781,-0.061 0.776,-0.061L0.394,-0.061L0.394,-0.417C0.381,-0.402 0.367,-0.389 0.352,-0.378C0.345,-0.372 0.34,-0.371 0.337,-0.374C0.334,-0.377 0.335,-0.381 0.34,-0.388ZM0.566,-0.077L0.566,-0.229L0.474,-0.229L0.474,-0.077L0.566,-0.077ZM0.566,-0.386L0.566,-0.518L0.474,-0.518L0.474,-0.386L0.566,-0.386ZM0.566,-0.245L0.566,-0.37L0.474,-0.37L0.474,-0.245L0.566,-0.245ZM0.112,-0.721C0.112,-0.726 0.114,-0.728 0.119,-0.728L0.77,-0.728C0.775,-0.728 0.778,-0.725 0.778,-0.72C0.778,-0.715 0.775,-0.712 0.77,-0.712L0.192,-0.712L0.192,0.024L0.801,0.024C0.806,0.024 0.809,0.027 0.809,0.032C0.809,0.037 0.806,0.04 0.801,0.04L0.112,0.04L0.112,-0.721Z" style="fill:white;fill-rule:nonzero;"/>
                </g>
                <g transform="matrix(27.9784,0,0,27.9784,1386.07,212.132)">
                    <path d="M0.136,-0.741C0.147,-0.751 0.159,-0.756 0.173,-0.756C0.187,-0.756 0.199,-0.751 0.21,-0.741C0.22,-0.73 0.225,-0.718 0.225,-0.704C0.225,-0.69 0.22,-0.678 0.21,-0.667C0.199,-0.657 0.187,-0.652 0.173,-0.652C0.159,-0.652 0.147,-0.657 0.136,-0.667C0.126,-0.678 0.121,-0.69 0.121,-0.704C0.121,-0.718 0.126,-0.73 0.136,-0.741ZM0.112,-0.469C0.123,-0.479 0.135,-0.484 0.149,-0.484C0.163,-0.484 0.175,-0.479 0.186,-0.469C0.196,-0.458 0.201,-0.446 0.201,-0.432C0.201,-0.418 0.196,-0.406 0.186,-0.395C0.175,-0.385 0.163,-0.38 0.149,-0.38C0.135,-0.38 0.123,-0.385 0.112,-0.395C0.102,-0.406 0.097,-0.418 0.097,-0.432C0.097,-0.446 0.102,-0.458 0.112,-0.469ZM0.094,0.05C0.141,-0.04 0.179,-0.142 0.21,-0.257C0.212,-0.264 0.216,-0.267 0.221,-0.265C0.226,-0.264 0.227,-0.26 0.226,-0.253C0.195,-0.137 0.155,-0.034 0.108,0.057C0.105,0.063 0.101,0.065 0.096,0.063C0.091,0.06 0.091,0.056 0.094,0.05ZM0.738,-0.13L0.313,-0.13L0.313,-0.437C0.313,-0.442 0.315,-0.444 0.32,-0.444L0.49,-0.444L0.49,-0.558L0.39,-0.558C0.385,-0.558 0.382,-0.561 0.382,-0.566C0.382,-0.571 0.385,-0.574 0.39,-0.574L0.685,-0.574C0.69,-0.574 0.693,-0.571 0.693,-0.566C0.693,-0.561 0.69,-0.558 0.685,-0.558L0.586,-0.558L0.586,-0.444L0.738,-0.444C0.764,-0.444 0.777,-0.431 0.777,-0.405L0.777,-0.169C0.777,-0.143 0.764,-0.13 0.738,-0.13ZM0.49,-0.146L0.49,-0.282L0.393,-0.282L0.393,-0.146L0.49,-0.146ZM0.586,-0.282L0.586,-0.146L0.681,-0.146L0.681,-0.282L0.586,-0.282ZM0.49,-0.298L0.49,-0.428L0.393,-0.428L0.393,-0.298L0.49,-0.298ZM0.586,-0.428L0.586,-0.298L0.681,-0.298L0.681,-0.428L0.586,-0.428ZM0.378,-0.087L0.474,-0.087C0.499,-0.087 0.503,-0.078 0.487,-0.059C0.427,0.006 0.353,0.046 0.266,0.062C0.257,0.064 0.252,0.063 0.251,0.059C0.249,0.055 0.251,0.051 0.258,0.048C0.32,0.015 0.369,-0.024 0.404,-0.071L0.378,-0.071C0.373,-0.071 0.37,-0.074 0.37,-0.079C0.37,-0.084 0.373,-0.087 0.378,-0.087ZM0.621,-0.084C0.624,-0.088 0.628,-0.088 0.635,-0.084C0.696,-0.049 0.752,-0.005 0.803,0.046C0.808,0.051 0.809,0.056 0.806,0.06C0.803,0.064 0.798,0.063 0.793,0.058C0.741,0.007 0.685,-0.036 0.625,-0.071C0.619,-0.075 0.618,-0.079 0.621,-0.084ZM0.287,-0.677L0.77,-0.677C0.796,-0.677 0.809,-0.664 0.809,-0.638L0.809,-0.579C0.809,-0.553 0.796,-0.54 0.77,-0.54L0.713,-0.54L0.713,-0.661L0.36,-0.661L0.36,-0.576C0.36,-0.553 0.348,-0.541 0.325,-0.541L0.28,-0.541L0.28,-0.67C0.28,-0.675 0.282,-0.677 0.287,-0.677ZM0.486,-0.765C0.498,-0.784 0.515,-0.794 0.538,-0.794C0.56,-0.794 0.577,-0.784 0.59,-0.765C0.597,-0.753 0.601,-0.739 0.601,-0.723C0.601,-0.718 0.599,-0.716 0.594,-0.716L0.482,-0.716C0.477,-0.716 0.475,-0.718 0.475,-0.723C0.475,-0.739 0.479,-0.753 0.486,-0.765Z" style="fill:white;fill-rule:nonzero;"/>
                </g>
                <g transform="matrix(27.9784,0,0,27.9784,1418.3,212.132)">
                    <path d="M0.087,-0.477C0.087,-0.532 0.103,-0.577 0.135,-0.61C0.167,-0.643 0.213,-0.659 0.272,-0.659C0.325,-0.659 0.367,-0.644 0.399,-0.614C0.43,-0.583 0.446,-0.545 0.446,-0.498C0.446,-0.437 0.424,-0.371 0.379,-0.298C0.336,-0.229 0.276,-0.137 0.199,-0.023L0.454,-0.023C0.461,-0.023 0.465,-0.019 0.465,-0.011C0.465,-0.004 0.461,0 0.454,0L0.087,0L0.087,-0.016C0.17,-0.137 0.232,-0.235 0.275,-0.309C0.318,-0.383 0.339,-0.446 0.339,-0.498C0.339,-0.54 0.332,-0.573 0.319,-0.598C0.306,-0.622 0.287,-0.634 0.263,-0.634C0.238,-0.634 0.219,-0.623 0.206,-0.601C0.193,-0.579 0.186,-0.557 0.186,-0.535C0.186,-0.514 0.181,-0.499 0.171,-0.49C0.16,-0.481 0.147,-0.477 0.132,-0.477L0.087,-0.477Z" style="fill:white;fill-rule:nonzero;"/>
                </g>
                <g transform="matrix(27.9784,0,0,27.9784,1433.1,212.132)">
                    <path d="M0.055,-0.325C0.055,-0.429 0.073,-0.511 0.108,-0.57C0.143,-0.629 0.197,-0.659 0.268,-0.659C0.338,-0.659 0.392,-0.631 0.429,-0.576C0.466,-0.521 0.484,-0.437 0.484,-0.325C0.484,-0.213 0.466,-0.129 0.429,-0.074C0.392,-0.019 0.338,0.009 0.268,0.009C0.197,0.009 0.143,-0.021 0.108,-0.08C0.073,-0.139 0.055,-0.221 0.055,-0.325ZM0.151,-0.325C0.151,-0.222 0.16,-0.145 0.179,-0.094C0.197,-0.042 0.224,-0.016 0.261,-0.016C0.301,-0.016 0.329,-0.041 0.346,-0.091C0.363,-0.14 0.371,-0.218 0.371,-0.325C0.371,-0.432 0.363,-0.51 0.346,-0.56C0.329,-0.609 0.301,-0.634 0.261,-0.634C0.224,-0.634 0.197,-0.608 0.179,-0.557C0.16,-0.505 0.151,-0.428 0.151,-0.325Z" style="fill:white;fill-rule:nonzero;"/>
                </g>
                <g transform="matrix(27.9784,0,0,27.9784,1447.9,212.132)">
                    <path d="M0.087,-0.477C0.087,-0.532 0.103,-0.577 0.135,-0.61C0.167,-0.643 0.213,-0.659 0.272,-0.659C0.325,-0.659 0.367,-0.644 0.399,-0.614C0.43,-0.583 0.446,-0.545 0.446,-0.498C0.446,-0.437 0.424,-0.371 0.379,-0.298C0.336,-0.229 0.276,-0.137 0.199,-0.023L0.454,-0.023C0.461,-0.023 0.465,-0.019 0.465,-0.011C0.465,-0.004 0.461,0 0.454,0L0.087,0L0.087,-0.016C0.17,-0.137 0.232,-0.235 0.275,-0.309C0.318,-0.383 0.339,-0.446 0.339,-0.498C0.339,-0.54 0.332,-0.573 0.319,-0.598C0.306,-0.622 0.287,-0.634 0.263,-0.634C0.238,-0.634 0.219,-0.623 0.206,-0.601C0.193,-0.579 0.186,-0.557 0.186,-0.535C0.186,-0.514 0.181,-0.499 0.171,-0.49C0.16,-0.481 0.147,-0.477 0.132,-0.477L0.087,-0.477Z" style="fill:white;fill-rule:nonzero;"/>
                </g>
                <g transform="matrix(27.9784,0,0,27.9784,1462.7,212.132)">
                    <path d="M0.055,-0.325C0.055,-0.429 0.073,-0.511 0.108,-0.57C0.143,-0.629 0.197,-0.659 0.268,-0.659C0.338,-0.659 0.392,-0.631 0.429,-0.576C0.466,-0.521 0.484,-0.437 0.484,-0.325C0.484,-0.213 0.466,-0.129 0.429,-0.074C0.392,-0.019 0.338,0.009 0.268,0.009C0.197,0.009 0.143,-0.021 0.108,-0.08C0.073,-0.139 0.055,-0.221 0.055,-0.325ZM0.151,-0.325C0.151,-0.222 0.16,-0.145 0.179,-0.094C0.197,-0.042 0.224,-0.016 0.261,-0.016C0.301,-0.016 0.329,-0.041 0.346,-0.091C0.363,-0.14 0.371,-0.218 0.371,-0.325C0.371,-0.432 0.363,-0.51 0.346,-0.56C0.329,-0.609 0.301,-0.634 0.261,-0.634C0.224,-0.634 0.197,-0.608 0.179,-0.557C0.16,-0.505 0.151,-0.428 0.151,-0.325Z" style="fill:white;fill-rule:nonzero;"/>
                </g>
            </g>
        </g>
        <g transform="matrix(1,0,0,3.30665,0,0)">
            <g transform="matrix(1.05683,0,0,0.319606,3727.44,-42.8235)">
                <g transform="matrix(27.9784,0,0,27.9784,1209.8,212.132)">
                    <path d="M0.211,-0.3L0.673,-0.3C0.699,-0.3 0.712,-0.287 0.712,-0.261L0.712,0.025C0.712,0.051 0.699,0.064 0.673,0.064L0.616,0.064L0.616,-0.005L0.284,-0.005L0.284,0.028C0.284,0.051 0.272,0.063 0.249,0.063L0.204,0.063L0.204,-0.293C0.204,-0.298 0.206,-0.3 0.211,-0.3ZM0.616,-0.145L0.284,-0.145L0.284,-0.021L0.616,-0.021L0.616,-0.145ZM0.284,-0.161L0.616,-0.161L0.616,-0.284L0.284,-0.284L0.284,-0.161ZM0.175,-0.711C0.364,-0.71 0.546,-0.724 0.721,-0.753C0.73,-0.754 0.736,-0.752 0.737,-0.747C0.738,-0.742 0.734,-0.739 0.727,-0.737C0.652,-0.724 0.575,-0.715 0.498,-0.708L0.498,-0.568L0.792,-0.568C0.797,-0.568 0.8,-0.565 0.8,-0.56C0.8,-0.555 0.797,-0.552 0.792,-0.552L0.514,-0.552C0.598,-0.457 0.695,-0.377 0.804,-0.312C0.81,-0.308 0.812,-0.304 0.809,-0.299C0.806,-0.294 0.801,-0.294 0.794,-0.298C0.683,-0.366 0.584,-0.449 0.498,-0.548L0.498,-0.382C0.498,-0.356 0.485,-0.343 0.459,-0.343L0.402,-0.343L0.402,-0.492C0.324,-0.403 0.225,-0.338 0.106,-0.298C0.097,-0.295 0.092,-0.295 0.09,-0.3C0.089,-0.304 0.091,-0.308 0.098,-0.312C0.207,-0.375 0.294,-0.455 0.36,-0.552L0.112,-0.552C0.107,-0.552 0.104,-0.555 0.104,-0.56C0.104,-0.565 0.107,-0.568 0.112,-0.568L0.402,-0.568L0.402,-0.701C0.328,-0.696 0.253,-0.694 0.177,-0.695C0.168,-0.695 0.163,-0.698 0.163,-0.703C0.163,-0.708 0.167,-0.711 0.175,-0.711Z" style="fill:white;fill-rule:nonzero;"/>
                </g>
                <g transform="matrix(27.9784,0,0,27.9784,1234.99,212.132)">
                    <path d="M0.137,-0.741C0.148,-0.751 0.16,-0.756 0.174,-0.756C0.188,-0.756 0.2,-0.751 0.211,-0.741C0.221,-0.73 0.226,-0.718 0.226,-0.704C0.226,-0.69 0.221,-0.678 0.211,-0.667C0.2,-0.657 0.188,-0.652 0.174,-0.652C0.16,-0.652 0.148,-0.657 0.137,-0.667C0.127,-0.678 0.122,-0.69 0.122,-0.704C0.122,-0.718 0.127,-0.73 0.137,-0.741ZM0.112,-0.469C0.123,-0.479 0.135,-0.484 0.149,-0.484C0.163,-0.484 0.175,-0.479 0.186,-0.469C0.196,-0.458 0.201,-0.446 0.201,-0.432C0.201,-0.418 0.196,-0.406 0.186,-0.395C0.175,-0.385 0.163,-0.38 0.149,-0.38C0.135,-0.38 0.123,-0.385 0.112,-0.395C0.102,-0.406 0.097,-0.418 0.097,-0.432C0.097,-0.446 0.102,-0.458 0.112,-0.469ZM0.09,0.05C0.131,-0.04 0.164,-0.142 0.188,-0.255C0.189,-0.262 0.193,-0.265 0.198,-0.264C0.203,-0.263 0.205,-0.258 0.204,-0.251C0.179,-0.137 0.146,-0.035 0.105,0.056C0.102,0.063 0.097,0.065 0.092,0.063C0.087,0.061 0.087,0.057 0.09,0.05ZM0.697,-0.03L0.697,-0.087C0.697,-0.092 0.699,-0.094 0.704,-0.094L0.751,-0.094C0.776,-0.094 0.789,-0.081 0.789,-0.056L0.789,-0.03C0.789,0.026 0.759,0.054 0.698,0.054L0.434,0.054C0.378,0.054 0.35,0.024 0.35,-0.037L0.35,-0.274C0.323,-0.249 0.292,-0.228 0.258,-0.209C0.25,-0.204 0.245,-0.203 0.242,-0.207C0.239,-0.21 0.241,-0.215 0.248,-0.221C0.315,-0.288 0.362,-0.366 0.39,-0.454L0.267,-0.454C0.262,-0.454 0.259,-0.457 0.259,-0.462C0.259,-0.467 0.262,-0.47 0.267,-0.47L0.392,-0.47L0.392,-0.626L0.304,-0.626C0.299,-0.626 0.296,-0.629 0.296,-0.634C0.296,-0.639 0.299,-0.642 0.304,-0.642L0.392,-0.642L0.392,-0.765L0.37,-0.765C0.365,-0.765 0.362,-0.768 0.362,-0.773C0.362,-0.778 0.365,-0.781 0.37,-0.781L0.437,-0.781C0.46,-0.781 0.472,-0.769 0.472,-0.746L0.472,-0.642L0.592,-0.642L0.592,-0.764L0.565,-0.764C0.56,-0.764 0.557,-0.767 0.557,-0.772C0.557,-0.777 0.56,-0.78 0.565,-0.78L0.649,-0.78C0.675,-0.78 0.688,-0.767 0.688,-0.741L0.688,-0.642L0.773,-0.642C0.778,-0.642 0.781,-0.639 0.781,-0.634C0.781,-0.629 0.778,-0.626 0.773,-0.626L0.688,-0.626L0.688,-0.47L0.804,-0.47C0.809,-0.47 0.812,-0.467 0.812,-0.462C0.812,-0.457 0.809,-0.454 0.804,-0.454L0.637,-0.454C0.682,-0.363 0.741,-0.287 0.815,-0.227C0.82,-0.223 0.821,-0.219 0.818,-0.215C0.814,-0.211 0.81,-0.211 0.805,-0.215C0.773,-0.241 0.744,-0.27 0.717,-0.302L0.717,-0.185C0.717,-0.159 0.704,-0.146 0.678,-0.146L0.43,-0.146L0.43,-0.037C0.43,0.013 0.451,0.038 0.492,0.038L0.636,0.038C0.677,0.038 0.697,0.015 0.697,-0.03ZM0.43,-0.162L0.621,-0.162L0.621,-0.317L0.43,-0.317L0.43,-0.162ZM0.619,-0.454L0.478,-0.454C0.459,-0.409 0.435,-0.369 0.406,-0.333L0.678,-0.333C0.684,-0.333 0.689,-0.332 0.694,-0.331C0.665,-0.368 0.64,-0.409 0.619,-0.454ZM0.472,-0.626L0.472,-0.47L0.592,-0.47L0.592,-0.626L0.472,-0.626Z" style="fill:white;fill-rule:nonzero;"/>
                </g>
                <g transform="matrix(27.9784,0,0,27.9784,1260.17,212.132)">
                    <path d="M0.308,-0.495L0.308,0.027C0.308,0.052 0.296,0.064 0.271,0.064L0.22,0.064L0.22,-0.302C0.187,-0.229 0.146,-0.167 0.096,-0.115C0.09,-0.109 0.085,-0.107 0.082,-0.11C0.079,-0.112 0.079,-0.117 0.084,-0.125C0.143,-0.237 0.183,-0.36 0.202,-0.495L0.099,-0.495C0.094,-0.495 0.091,-0.498 0.091,-0.503C0.091,-0.508 0.094,-0.511 0.099,-0.511L0.22,-0.511L0.22,-0.718C0.189,-0.715 0.158,-0.712 0.127,-0.71C0.118,-0.709 0.114,-0.712 0.114,-0.717C0.113,-0.722 0.117,-0.725 0.125,-0.726C0.22,-0.731 0.31,-0.744 0.397,-0.763C0.406,-0.766 0.411,-0.764 0.412,-0.759C0.414,-0.754 0.411,-0.75 0.403,-0.749C0.372,-0.742 0.34,-0.735 0.308,-0.73L0.308,-0.511L0.423,-0.511C0.428,-0.511 0.431,-0.508 0.431,-0.503C0.431,-0.498 0.428,-0.495 0.423,-0.495L0.308,-0.495ZM0.34,-0.365C0.349,-0.373 0.359,-0.377 0.37,-0.377C0.381,-0.377 0.391,-0.373 0.4,-0.365C0.408,-0.356 0.412,-0.346 0.412,-0.335C0.412,-0.324 0.408,-0.314 0.4,-0.305C0.391,-0.297 0.381,-0.293 0.37,-0.293C0.359,-0.293 0.349,-0.297 0.34,-0.305C0.332,-0.314 0.328,-0.324 0.328,-0.335C0.328,-0.346 0.332,-0.356 0.34,-0.365ZM0.64,-0.231L0.64,-0.756L0.613,-0.756C0.608,-0.756 0.605,-0.759 0.605,-0.764C0.605,-0.769 0.608,-0.772 0.613,-0.772L0.697,-0.772C0.723,-0.772 0.736,-0.759 0.736,-0.733L0.736,-0.245L0.808,-0.255C0.813,-0.256 0.817,-0.253 0.818,-0.248C0.819,-0.243 0.816,-0.24 0.81,-0.239L0.736,-0.228L0.736,0.025C0.736,0.051 0.723,0.064 0.697,0.064L0.64,0.064L0.64,-0.214L0.404,-0.18C0.397,-0.179 0.393,-0.182 0.393,-0.187C0.392,-0.192 0.395,-0.195 0.401,-0.196L0.64,-0.231ZM0.482,-0.664C0.492,-0.674 0.504,-0.679 0.517,-0.679C0.53,-0.679 0.542,-0.674 0.552,-0.664C0.562,-0.654 0.567,-0.642 0.567,-0.629C0.567,-0.616 0.562,-0.604 0.552,-0.594C0.542,-0.584 0.53,-0.579 0.517,-0.579C0.504,-0.579 0.492,-0.584 0.482,-0.594C0.472,-0.604 0.467,-0.616 0.467,-0.629C0.467,-0.642 0.472,-0.654 0.482,-0.664ZM0.482,-0.445C0.492,-0.455 0.504,-0.46 0.517,-0.46C0.53,-0.46 0.542,-0.455 0.552,-0.445C0.562,-0.435 0.567,-0.423 0.567,-0.41C0.567,-0.397 0.562,-0.385 0.552,-0.375C0.542,-0.365 0.53,-0.36 0.517,-0.36C0.504,-0.36 0.492,-0.365 0.482,-0.375C0.472,-0.385 0.467,-0.397 0.467,-0.41C0.467,-0.423 0.472,-0.435 0.482,-0.445Z" style="fill:white;fill-rule:nonzero;"/>
                </g>
                <g transform="matrix(27.9784,0,0,27.9784,1285.35,212.132)">
                    <path d="M0.268,-0.324L0.268,-0.038C0.268,0.023 0.238,0.053 0.177,0.053L0.1,0.053C0.095,0.053 0.092,0.05 0.092,0.045C0.092,0.04 0.095,0.037 0.1,0.037L0.118,0.037C0.159,0.037 0.18,0.012 0.18,-0.038L0.18,-0.3C0.154,-0.294 0.127,-0.289 0.1,-0.284C0.091,-0.283 0.086,-0.284 0.085,-0.289C0.084,-0.294 0.088,-0.298 0.096,-0.3C0.125,-0.305 0.153,-0.311 0.18,-0.317L0.18,-0.59L0.099,-0.59C0.094,-0.59 0.091,-0.593 0.091,-0.598C0.091,-0.603 0.094,-0.606 0.099,-0.606L0.18,-0.606L0.18,-0.778L0.155,-0.778C0.15,-0.778 0.147,-0.781 0.147,-0.786C0.147,-0.791 0.15,-0.794 0.155,-0.794L0.231,-0.794C0.256,-0.794 0.268,-0.782 0.268,-0.757L0.268,-0.606L0.344,-0.606C0.349,-0.606 0.352,-0.603 0.352,-0.598C0.352,-0.593 0.349,-0.59 0.344,-0.59L0.268,-0.59L0.268,-0.341C0.293,-0.349 0.318,-0.357 0.342,-0.366C0.35,-0.368 0.355,-0.367 0.356,-0.362C0.357,-0.357 0.354,-0.353 0.346,-0.35C0.321,-0.341 0.295,-0.332 0.268,-0.324ZM0.683,-0.418L0.382,-0.418C0.377,-0.418 0.374,-0.421 0.374,-0.426C0.374,-0.431 0.377,-0.434 0.382,-0.434L0.524,-0.434L0.524,-0.634L0.368,-0.634C0.363,-0.634 0.36,-0.637 0.36,-0.642C0.36,-0.647 0.363,-0.65 0.368,-0.65L0.524,-0.65L0.524,-0.778L0.497,-0.778C0.492,-0.778 0.489,-0.781 0.489,-0.786C0.489,-0.791 0.492,-0.794 0.497,-0.794L0.581,-0.794C0.607,-0.794 0.62,-0.781 0.62,-0.755L0.62,-0.65L0.797,-0.65C0.802,-0.65 0.805,-0.647 0.805,-0.642C0.805,-0.637 0.802,-0.634 0.797,-0.634L0.62,-0.634L0.62,-0.434L0.743,-0.434C0.769,-0.434 0.78,-0.421 0.775,-0.396C0.754,-0.292 0.708,-0.199 0.635,-0.117C0.626,-0.108 0.618,-0.099 0.609,-0.09C0.665,-0.036 0.731,0.009 0.807,0.046C0.814,0.049 0.816,0.053 0.814,0.058C0.811,0.063 0.806,0.064 0.799,0.06C0.722,0.023 0.654,-0.023 0.597,-0.078C0.53,-0.016 0.448,0.03 0.35,0.06C0.341,0.063 0.336,0.062 0.334,0.058C0.332,0.054 0.335,0.05 0.342,0.046C0.431,-0.001 0.502,-0.057 0.554,-0.123C0.496,-0.19 0.45,-0.268 0.416,-0.358C0.413,-0.365 0.414,-0.369 0.419,-0.371C0.424,-0.373 0.428,-0.371 0.43,-0.364C0.463,-0.277 0.508,-0.201 0.564,-0.136C0.57,-0.144 0.576,-0.152 0.581,-0.16C0.633,-0.237 0.667,-0.323 0.683,-0.418Z" style="fill:white;fill-rule:nonzero;"/>
                </g>
                <g transform="matrix(27.9784,0,0,27.9784,1310.53,212.132)">
                    <path d="M0.106,0.047C0.267,-0.082 0.363,-0.264 0.392,-0.499L0.127,-0.499C0.122,-0.499 0.119,-0.502 0.119,-0.507C0.119,-0.512 0.122,-0.515 0.127,-0.515L0.394,-0.515C0.399,-0.558 0.401,-0.604 0.402,-0.651L0.402,-0.768L0.375,-0.768C0.37,-0.768 0.367,-0.771 0.367,-0.776C0.367,-0.781 0.37,-0.784 0.375,-0.784L0.459,-0.784C0.485,-0.784 0.498,-0.771 0.498,-0.745L0.498,-0.651C0.497,-0.604 0.495,-0.558 0.49,-0.515L0.777,-0.515C0.782,-0.515 0.785,-0.512 0.785,-0.507C0.785,-0.502 0.782,-0.499 0.777,-0.499L0.498,-0.499C0.508,-0.389 0.537,-0.289 0.586,-0.199C0.636,-0.106 0.706,-0.024 0.797,0.048C0.802,0.053 0.803,0.057 0.799,0.061C0.796,0.065 0.791,0.065 0.785,0.06C0.693,-0.013 0.622,-0.097 0.571,-0.192C0.525,-0.278 0.496,-0.373 0.484,-0.477C0.445,-0.222 0.323,-0.043 0.116,0.06C0.108,0.064 0.103,0.064 0.1,0.06C0.097,0.056 0.099,0.052 0.106,0.047Z" style="fill:white;fill-rule:nonzero;"/>
                </g>
                <g transform="matrix(27.9784,0,0,27.9784,1335.71,212.132)">
                    <path d="M0.48,-0.665C0.445,-0.64 0.406,-0.622 0.361,-0.612C0.352,-0.609 0.346,-0.609 0.345,-0.614C0.343,-0.618 0.346,-0.622 0.353,-0.626C0.386,-0.647 0.414,-0.67 0.437,-0.697C0.412,-0.714 0.388,-0.729 0.363,-0.743C0.355,-0.747 0.352,-0.751 0.355,-0.756C0.358,-0.761 0.362,-0.761 0.369,-0.757C0.396,-0.742 0.421,-0.726 0.446,-0.709C0.457,-0.722 0.466,-0.736 0.473,-0.751L0.45,-0.751C0.445,-0.751 0.442,-0.754 0.442,-0.759C0.442,-0.764 0.445,-0.767 0.45,-0.767L0.536,-0.767C0.56,-0.767 0.565,-0.757 0.552,-0.737C0.534,-0.713 0.514,-0.692 0.493,-0.675C0.512,-0.661 0.53,-0.646 0.548,-0.63C0.553,-0.625 0.554,-0.621 0.551,-0.617C0.548,-0.613 0.543,-0.614 0.536,-0.619C0.517,-0.635 0.499,-0.65 0.48,-0.665ZM0.472,-0.488C0.437,-0.461 0.396,-0.443 0.351,-0.432C0.342,-0.429 0.336,-0.429 0.335,-0.434C0.333,-0.438 0.336,-0.442 0.343,-0.446C0.377,-0.467 0.405,-0.492 0.428,-0.519C0.404,-0.535 0.38,-0.55 0.355,-0.564C0.347,-0.568 0.344,-0.572 0.347,-0.577C0.35,-0.582 0.354,-0.582 0.361,-0.578C0.387,-0.563 0.413,-0.548 0.438,-0.531C0.449,-0.546 0.459,-0.561 0.467,-0.577L0.444,-0.577C0.439,-0.577 0.436,-0.58 0.436,-0.585C0.436,-0.59 0.439,-0.593 0.444,-0.593L0.53,-0.593C0.554,-0.593 0.559,-0.583 0.546,-0.563C0.528,-0.538 0.508,-0.516 0.485,-0.498C0.507,-0.482 0.528,-0.465 0.549,-0.447C0.555,-0.442 0.556,-0.437 0.552,-0.433C0.549,-0.429 0.544,-0.43 0.537,-0.435C0.516,-0.454 0.494,-0.471 0.472,-0.488ZM0.579,-0.742L0.722,-0.742C0.747,-0.742 0.76,-0.729 0.76,-0.704L0.76,-0.416L0.765,-0.416C0.791,-0.416 0.804,-0.403 0.804,-0.377L0.804,-0.305C0.804,-0.279 0.791,-0.266 0.765,-0.266L0.708,-0.266L0.708,-0.4L0.186,-0.4L0.186,-0.301C0.186,-0.278 0.174,-0.266 0.151,-0.266L0.106,-0.266L0.106,-0.409C0.106,-0.414 0.108,-0.416 0.113,-0.416L0.154,-0.416L0.154,-0.731C0.154,-0.736 0.156,-0.738 0.161,-0.738C0.212,-0.741 0.263,-0.749 0.316,-0.762C0.323,-0.764 0.327,-0.762 0.329,-0.757C0.33,-0.752 0.327,-0.749 0.32,-0.746C0.29,-0.738 0.26,-0.732 0.23,-0.728L0.23,-0.632L0.319,-0.632C0.324,-0.632 0.327,-0.629 0.327,-0.624C0.327,-0.619 0.324,-0.616 0.319,-0.616L0.23,-0.616L0.23,-0.526L0.318,-0.526C0.323,-0.526 0.326,-0.523 0.326,-0.518C0.326,-0.513 0.323,-0.51 0.318,-0.51L0.23,-0.51L0.23,-0.416L0.668,-0.416L0.668,-0.51L0.586,-0.51C0.581,-0.51 0.578,-0.513 0.578,-0.518C0.578,-0.523 0.581,-0.526 0.586,-0.526L0.668,-0.526L0.668,-0.616L0.586,-0.616C0.581,-0.616 0.578,-0.619 0.578,-0.624C0.578,-0.629 0.581,-0.632 0.586,-0.632L0.668,-0.632L0.668,-0.726L0.579,-0.726C0.574,-0.726 0.571,-0.729 0.571,-0.734C0.571,-0.739 0.574,-0.742 0.579,-0.742ZM0.242,-0.317L0.641,-0.317C0.667,-0.317 0.672,-0.307 0.656,-0.286C0.624,-0.25 0.576,-0.223 0.511,-0.204L0.511,-0.153L0.802,-0.153C0.807,-0.153 0.81,-0.15 0.81,-0.145C0.81,-0.14 0.807,-0.137 0.802,-0.137L0.511,-0.137L0.511,-0.051C0.511,0.019 0.481,0.054 0.42,0.054L0.289,0.054C0.284,0.054 0.281,0.051 0.281,0.046C0.281,0.041 0.284,0.038 0.289,0.038L0.351,0.038C0.394,0.038 0.415,0.008 0.415,-0.051L0.415,-0.137L0.098,-0.137C0.093,-0.137 0.09,-0.14 0.09,-0.145C0.09,-0.15 0.093,-0.153 0.098,-0.153L0.415,-0.153L0.415,-0.217C0.415,-0.222 0.417,-0.224 0.422,-0.224L0.478,-0.224C0.515,-0.249 0.544,-0.274 0.564,-0.301L0.242,-0.301C0.237,-0.301 0.234,-0.304 0.234,-0.309C0.234,-0.314 0.237,-0.317 0.242,-0.317Z" style="fill:white;fill-rule:nonzero;"/>
                </g>
                <g transform="matrix(27.9784,0,0,27.9784,1360.89,212.132)">
                    <path d="M0.48,-0.665C0.445,-0.64 0.406,-0.622 0.361,-0.612C0.352,-0.609 0.346,-0.609 0.345,-0.614C0.343,-0.618 0.346,-0.622 0.353,-0.626C0.386,-0.647 0.414,-0.67 0.437,-0.697C0.412,-0.714 0.388,-0.729 0.363,-0.743C0.355,-0.747 0.352,-0.751 0.355,-0.756C0.358,-0.761 0.362,-0.761 0.369,-0.757C0.396,-0.742 0.421,-0.726 0.446,-0.709C0.457,-0.722 0.466,-0.736 0.473,-0.751L0.45,-0.751C0.445,-0.751 0.442,-0.754 0.442,-0.759C0.442,-0.764 0.445,-0.767 0.45,-0.767L0.536,-0.767C0.56,-0.767 0.565,-0.757 0.552,-0.737C0.534,-0.713 0.514,-0.692 0.493,-0.675C0.512,-0.661 0.53,-0.646 0.548,-0.63C0.553,-0.625 0.554,-0.621 0.551,-0.617C0.548,-0.613 0.543,-0.614 0.536,-0.619C0.517,-0.635 0.499,-0.65 0.48,-0.665ZM0.472,-0.488C0.437,-0.461 0.396,-0.443 0.351,-0.432C0.342,-0.429 0.336,-0.429 0.335,-0.434C0.333,-0.438 0.336,-0.442 0.343,-0.446C0.377,-0.467 0.405,-0.492 0.428,-0.519C0.404,-0.535 0.38,-0.55 0.355,-0.564C0.347,-0.568 0.344,-0.572 0.347,-0.577C0.35,-0.582 0.354,-0.582 0.361,-0.578C0.387,-0.563 0.413,-0.548 0.438,-0.531C0.449,-0.546 0.459,-0.561 0.467,-0.577L0.444,-0.577C0.439,-0.577 0.436,-0.58 0.436,-0.585C0.436,-0.59 0.439,-0.593 0.444,-0.593L0.53,-0.593C0.554,-0.593 0.559,-0.583 0.546,-0.563C0.528,-0.538 0.508,-0.516 0.485,-0.498C0.507,-0.482 0.528,-0.465 0.549,-0.447C0.555,-0.442 0.556,-0.437 0.552,-0.433C0.549,-0.429 0.544,-0.43 0.537,-0.435C0.516,-0.454 0.494,-0.471 0.472,-0.488ZM0.579,-0.742L0.722,-0.742C0.747,-0.742 0.76,-0.729 0.76,-0.704L0.76,-0.416L0.765,-0.416C0.791,-0.416 0.804,-0.403 0.804,-0.377L0.804,-0.305C0.804,-0.279 0.791,-0.266 0.765,-0.266L0.708,-0.266L0.708,-0.4L0.186,-0.4L0.186,-0.301C0.186,-0.278 0.174,-0.266 0.151,-0.266L0.106,-0.266L0.106,-0.409C0.106,-0.414 0.108,-0.416 0.113,-0.416L0.154,-0.416L0.154,-0.731C0.154,-0.736 0.156,-0.738 0.161,-0.738C0.212,-0.741 0.263,-0.749 0.316,-0.762C0.323,-0.764 0.327,-0.762 0.329,-0.757C0.33,-0.752 0.327,-0.749 0.32,-0.746C0.29,-0.738 0.26,-0.732 0.23,-0.728L0.23,-0.632L0.319,-0.632C0.324,-0.632 0.327,-0.629 0.327,-0.624C0.327,-0.619 0.324,-0.616 0.319,-0.616L0.23,-0.616L0.23,-0.526L0.318,-0.526C0.323,-0.526 0.326,-0.523 0.326,-0.518C0.326,-0.513 0.323,-0.51 0.318,-0.51L0.23,-0.51L0.23,-0.416L0.668,-0.416L0.668,-0.51L0.586,-0.51C0.581,-0.51 0.578,-0.513 0.578,-0.518C0.578,-0.523 0.581,-0.526 0.586,-0.526L0.668,-0.526L0.668,-0.616L0.586,-0.616C0.581,-0.616 0.578,-0.619 0.578,-0.624C0.578,-0.629 0.581,-0.632 0.586,-0.632L0.668,-0.632L0.668,-0.726L0.579,-0.726C0.574,-0.726 0.571,-0.729 0.571,-0.734C0.571,-0.739 0.574,-0.742 0.579,-0.742ZM0.242,-0.317L0.641,-0.317C0.667,-0.317 0.672,-0.307 0.656,-0.286C0.624,-0.25 0.576,-0.223 0.511,-0.204L0.511,-0.153L0.802,-0.153C0.807,-0.153 0.81,-0.15 0.81,-0.145C0.81,-0.14 0.807,-0.137 0.802,-0.137L0.511,-0.137L0.511,-0.051C0.511,0.019 0.481,0.054 0.42,0.054L0.289,0.054C0.284,0.054 0.281,0.051 0.281,0.046C0.281,0.041 0.284,0.038 0.289,0.038L0.351,0.038C0.394,0.038 0.415,0.008 0.415,-0.051L0.415,-0.137L0.098,-0.137C0.093,-0.137 0.09,-0.14 0.09,-0.145C0.09,-0.15 0.093,-0.153 0.098,-0.153L0.415,-0.153L0.415,-0.217C0.415,-0.222 0.417,-0.224 0.422,-0.224L0.478,-0.224C0.515,-0.249 0.544,-0.274 0.564,-0.301L0.242,-0.301C0.237,-0.301 0.234,-0.304 0.234,-0.309C0.234,-0.314 0.237,-0.317 0.242,-0.317Z" style="fill:white;fill-rule:nonzero;"/>
                </g>
                <g transform="matrix(27.9784,0,0,27.9784,1386.07,212.132)">
                    <path d="M0.108,-0.396C0.165,-0.493 0.196,-0.603 0.203,-0.724L0.178,-0.724C0.173,-0.724 0.17,-0.727 0.17,-0.732C0.17,-0.737 0.173,-0.74 0.178,-0.74L0.26,-0.74C0.284,-0.74 0.294,-0.728 0.29,-0.704C0.283,-0.667 0.273,-0.633 0.261,-0.601L0.418,-0.601L0.418,-0.768L0.391,-0.768C0.386,-0.768 0.383,-0.771 0.383,-0.776C0.383,-0.781 0.386,-0.784 0.391,-0.784L0.475,-0.784C0.501,-0.784 0.514,-0.771 0.514,-0.745L0.514,-0.601L0.767,-0.601C0.772,-0.601 0.775,-0.598 0.775,-0.593C0.775,-0.588 0.772,-0.585 0.767,-0.585L0.514,-0.585L0.514,-0.307L0.733,-0.307C0.738,-0.307 0.741,-0.304 0.741,-0.299C0.741,-0.294 0.738,-0.291 0.733,-0.291L0.514,-0.291L0.514,0.014L0.802,0.014C0.807,0.014 0.81,0.017 0.81,0.022C0.81,0.027 0.807,0.03 0.802,0.03L0.108,0.03C0.103,0.03 0.1,0.027 0.1,0.022C0.1,0.017 0.103,0.014 0.108,0.014L0.418,0.014L0.418,-0.291L0.18,-0.291C0.175,-0.291 0.172,-0.294 0.172,-0.299C0.172,-0.304 0.175,-0.307 0.18,-0.307L0.418,-0.307L0.418,-0.585L0.255,-0.585C0.224,-0.507 0.179,-0.441 0.122,-0.388C0.115,-0.381 0.11,-0.379 0.107,-0.382C0.104,-0.385 0.104,-0.39 0.108,-0.396Z" style="fill:white;fill-rule:nonzero;"/>
                </g>
                <g transform="matrix(27.9784,0,0,27.9784,1411.25,212.132)">
                    <path d="M0.338,-0.62L0.566,-0.62C0.571,-0.62 0.574,-0.617 0.574,-0.612C0.574,-0.607 0.571,-0.604 0.566,-0.604L0.338,-0.604C0.333,-0.604 0.33,-0.607 0.33,-0.612C0.33,-0.617 0.333,-0.62 0.338,-0.62ZM0.217,-0.255L0.663,-0.255C0.689,-0.255 0.702,-0.242 0.702,-0.216L0.702,0.025C0.702,0.051 0.689,0.064 0.663,0.064L0.606,0.064L0.606,-0.001L0.29,-0.001L0.29,0.029C0.29,0.052 0.278,0.064 0.255,0.064L0.21,0.064L0.21,-0.248C0.21,-0.253 0.212,-0.255 0.217,-0.255ZM0.606,-0.122L0.29,-0.122L0.29,-0.017L0.606,-0.017L0.606,-0.122ZM0.29,-0.138L0.606,-0.138L0.606,-0.239L0.29,-0.239L0.29,-0.138ZM0.717,-0.536C0.743,-0.536 0.756,-0.523 0.756,-0.497L0.756,-0.364C0.756,-0.338 0.743,-0.325 0.717,-0.325L0.16,-0.325L0.16,-0.529C0.16,-0.534 0.162,-0.536 0.167,-0.536L0.717,-0.536ZM0.406,-0.341L0.406,-0.52L0.24,-0.52L0.24,-0.341L0.406,-0.341ZM0.494,-0.52L0.494,-0.341L0.66,-0.341L0.66,-0.52L0.494,-0.52ZM0.296,-0.458C0.304,-0.466 0.313,-0.47 0.324,-0.47C0.335,-0.47 0.344,-0.466 0.352,-0.458C0.36,-0.45 0.364,-0.441 0.364,-0.43C0.364,-0.419 0.36,-0.41 0.352,-0.402C0.344,-0.394 0.335,-0.39 0.324,-0.39C0.313,-0.39 0.304,-0.394 0.296,-0.402C0.288,-0.41 0.284,-0.419 0.284,-0.43C0.284,-0.441 0.288,-0.45 0.296,-0.458ZM0.549,-0.459C0.557,-0.467 0.566,-0.471 0.577,-0.471C0.588,-0.471 0.597,-0.467 0.605,-0.459C0.613,-0.451 0.617,-0.442 0.617,-0.431C0.617,-0.42 0.613,-0.411 0.605,-0.403C0.597,-0.395 0.588,-0.391 0.577,-0.391C0.566,-0.391 0.557,-0.395 0.549,-0.403C0.541,-0.411 0.537,-0.42 0.537,-0.431C0.537,-0.442 0.541,-0.451 0.549,-0.459ZM0.472,-0.735C0.367,-0.634 0.24,-0.571 0.093,-0.545C0.085,-0.543 0.08,-0.544 0.079,-0.549C0.077,-0.553 0.08,-0.556 0.087,-0.559C0.223,-0.615 0.331,-0.689 0.411,-0.781L0.385,-0.781C0.38,-0.781 0.377,-0.784 0.377,-0.789C0.377,-0.794 0.38,-0.797 0.385,-0.797L0.492,-0.797C0.518,-0.797 0.522,-0.787 0.505,-0.768C0.498,-0.761 0.491,-0.753 0.484,-0.746C0.579,-0.664 0.689,-0.602 0.813,-0.559C0.82,-0.556 0.823,-0.552 0.821,-0.547C0.82,-0.542 0.815,-0.541 0.807,-0.543C0.681,-0.587 0.569,-0.651 0.472,-0.735Z" style="fill:white;fill-rule:nonzero;"/>
                </g>
                <g transform="matrix(27.9784,0,0,27.9784,1436.43,212.132)">
                    <path d="M0.474,-0.276C0.482,-0.284 0.491,-0.288 0.502,-0.288C0.513,-0.288 0.522,-0.284 0.53,-0.276C0.538,-0.268 0.542,-0.259 0.542,-0.248C0.542,-0.237 0.538,-0.228 0.53,-0.22C0.522,-0.212 0.513,-0.208 0.502,-0.208C0.491,-0.208 0.482,-0.212 0.474,-0.22C0.466,-0.228 0.462,-0.237 0.462,-0.248C0.462,-0.259 0.466,-0.268 0.474,-0.276ZM0.212,-0.388L0.548,-0.388C0.553,-0.388 0.556,-0.385 0.556,-0.38C0.556,-0.375 0.553,-0.372 0.548,-0.372L0.428,-0.372C0.41,-0.349 0.391,-0.329 0.37,-0.311C0.397,-0.288 0.418,-0.263 0.433,-0.234C0.442,-0.218 0.448,-0.2 0.453,-0.179C0.496,-0.143 0.533,-0.107 0.565,-0.072C0.569,-0.067 0.569,-0.062 0.566,-0.059C0.562,-0.055 0.558,-0.055 0.553,-0.06C0.526,-0.091 0.494,-0.122 0.458,-0.153C0.461,-0.134 0.462,-0.113 0.462,-0.09C0.462,-0.042 0.451,-0.006 0.428,0.018C0.405,0.042 0.365,0.054 0.308,0.054L0.27,0.054C0.265,0.054 0.262,0.051 0.262,0.046C0.262,0.041 0.265,0.038 0.27,0.038L0.294,0.038C0.324,0.038 0.346,0.029 0.361,0.012C0.375,-0.005 0.382,-0.039 0.382,-0.09L0.382,-0.109C0.328,-0.064 0.265,-0.028 0.194,-0.003C0.186,0 0.181,-0.002 0.18,-0.007C0.178,-0.012 0.181,-0.016 0.188,-0.018C0.262,-0.044 0.326,-0.081 0.381,-0.129C0.38,-0.164 0.377,-0.193 0.372,-0.218L0.372,-0.22C0.325,-0.177 0.268,-0.143 0.203,-0.119C0.196,-0.116 0.191,-0.117 0.189,-0.122C0.187,-0.127 0.19,-0.13 0.197,-0.133C0.263,-0.158 0.32,-0.193 0.367,-0.238C0.362,-0.256 0.355,-0.274 0.347,-0.293C0.305,-0.262 0.257,-0.239 0.204,-0.225C0.195,-0.222 0.19,-0.223 0.188,-0.227C0.187,-0.232 0.19,-0.236 0.198,-0.239C0.257,-0.273 0.304,-0.317 0.341,-0.372L0.212,-0.372C0.207,-0.372 0.204,-0.375 0.204,-0.38C0.204,-0.385 0.207,-0.388 0.212,-0.388ZM0.519,-0.45L0.335,-0.45C0.297,-0.45 0.278,-0.469 0.278,-0.507L0.278,-0.531L0.217,-0.527C0.21,-0.526 0.206,-0.529 0.206,-0.534C0.205,-0.539 0.208,-0.542 0.215,-0.543L0.278,-0.548L0.278,-0.622L0.182,-0.622L0.182,-0.42C0.182,-0.208 0.154,-0.05 0.098,0.054C0.093,0.061 0.089,0.063 0.085,0.062C0.082,0.061 0.081,0.057 0.082,0.05C0.106,-0.068 0.118,-0.225 0.118,-0.42L0.118,-0.631C0.118,-0.636 0.12,-0.638 0.125,-0.638L0.278,-0.638L0.278,-0.778L0.256,-0.778C0.251,-0.778 0.248,-0.781 0.248,-0.786C0.248,-0.791 0.251,-0.794 0.256,-0.794L0.323,-0.794C0.346,-0.794 0.358,-0.782 0.358,-0.759L0.358,-0.728L0.525,-0.728C0.53,-0.728 0.533,-0.725 0.533,-0.72C0.533,-0.715 0.53,-0.712 0.525,-0.712L0.358,-0.712L0.358,-0.638L0.545,-0.638C0.571,-0.638 0.578,-0.627 0.565,-0.604C0.542,-0.571 0.512,-0.544 0.475,-0.523C0.468,-0.519 0.464,-0.518 0.461,-0.521C0.458,-0.524 0.459,-0.528 0.463,-0.535C0.476,-0.561 0.484,-0.59 0.487,-0.622L0.358,-0.622L0.358,-0.553L0.447,-0.56C0.455,-0.561 0.459,-0.558 0.459,-0.553C0.46,-0.548 0.456,-0.545 0.449,-0.544L0.358,-0.537L0.358,-0.507C0.358,-0.48 0.367,-0.466 0.385,-0.466L0.519,-0.466C0.524,-0.466 0.527,-0.463 0.527,-0.458C0.527,-0.453 0.524,-0.45 0.519,-0.45ZM0.708,-0.051L0.708,-0.768L0.684,-0.768C0.678,-0.768 0.675,-0.771 0.675,-0.776C0.675,-0.781 0.678,-0.784 0.684,-0.784L0.759,-0.784C0.784,-0.784 0.796,-0.772 0.796,-0.747L0.796,-0.051C0.796,0.019 0.766,0.054 0.705,0.054L0.608,0.054C0.603,0.054 0.6,0.051 0.6,0.046C0.6,0.041 0.603,0.038 0.608,0.038L0.644,0.038C0.687,0.038 0.708,0.008 0.708,-0.051ZM0.632,-0.7C0.654,-0.7 0.665,-0.689 0.665,-0.667L0.665,-0.141C0.665,-0.119 0.654,-0.108 0.632,-0.108L0.593,-0.108L0.593,-0.684L0.573,-0.684C0.568,-0.684 0.565,-0.687 0.565,-0.692C0.565,-0.697 0.568,-0.7 0.573,-0.7L0.632,-0.7Z" style="fill:white;fill-rule:nonzero;"/>
                </g>
                <g transform="matrix(27.9784,0,0,27.9784,1461.61,212.132)">
                    <path d="M0.095,-0.65L0.352,-0.65C0.377,-0.65 0.387,-0.638 0.382,-0.613C0.364,-0.537 0.332,-0.47 0.286,-0.411L0.286,-0.391C0.327,-0.354 0.365,-0.317 0.399,-0.28C0.405,-0.273 0.406,-0.268 0.402,-0.265C0.398,-0.261 0.393,-0.262 0.387,-0.268C0.356,-0.302 0.323,-0.335 0.286,-0.368L0.286,0.027C0.286,0.052 0.274,0.064 0.249,0.064L0.198,0.064L0.198,-0.324C0.168,-0.3 0.134,-0.278 0.097,-0.258C0.088,-0.253 0.083,-0.253 0.08,-0.256C0.077,-0.259 0.079,-0.264 0.085,-0.27C0.193,-0.365 0.263,-0.487 0.295,-0.634L0.095,-0.634C0.09,-0.634 0.087,-0.637 0.087,-0.642C0.087,-0.647 0.09,-0.65 0.095,-0.65ZM0.182,-0.763C0.195,-0.784 0.213,-0.794 0.237,-0.794C0.261,-0.794 0.279,-0.784 0.292,-0.763C0.3,-0.75 0.304,-0.735 0.304,-0.718C0.304,-0.713 0.302,-0.711 0.297,-0.711L0.177,-0.711C0.172,-0.711 0.17,-0.713 0.17,-0.718C0.17,-0.735 0.174,-0.75 0.182,-0.763ZM0.81,0.018L0.358,0.018C0.353,0.018 0.35,0.015 0.35,0.01C0.35,0.005 0.353,0.002 0.358,0.002L0.536,0.002L0.536,-0.495L0.402,-0.495C0.397,-0.495 0.394,-0.498 0.394,-0.503C0.394,-0.508 0.397,-0.511 0.402,-0.511L0.536,-0.511L0.536,-0.753L0.509,-0.753C0.504,-0.753 0.501,-0.756 0.501,-0.761C0.501,-0.766 0.504,-0.769 0.509,-0.769L0.593,-0.769C0.619,-0.769 0.632,-0.756 0.632,-0.73L0.632,-0.511L0.774,-0.511C0.779,-0.511 0.782,-0.508 0.782,-0.503C0.782,-0.498 0.779,-0.495 0.774,-0.495L0.632,-0.495L0.632,0.002L0.81,0.002C0.815,0.002 0.818,0.005 0.818,0.01C0.818,0.015 0.815,0.018 0.81,0.018Z" style="fill:white;fill-rule:nonzero;"/>
                </g>
                <g transform="matrix(27.9784,0,0,27.9784,1486.79,212.132)">
                    <path d="M0.395,-0.763C0.408,-0.784 0.426,-0.794 0.45,-0.794C0.474,-0.794 0.492,-0.784 0.505,-0.763C0.513,-0.75 0.517,-0.735 0.517,-0.718C0.517,-0.713 0.515,-0.711 0.51,-0.711L0.39,-0.711C0.385,-0.711 0.383,-0.713 0.383,-0.718C0.383,-0.735 0.387,-0.75 0.395,-0.763ZM0.133,-0.632L0.766,-0.632C0.771,-0.632 0.774,-0.629 0.774,-0.624C0.774,-0.619 0.771,-0.616 0.766,-0.616L0.498,-0.616L0.498,-0.329L0.737,-0.329C0.742,-0.329 0.745,-0.326 0.745,-0.321C0.745,-0.316 0.742,-0.313 0.737,-0.313L0.498,-0.313L0.498,0.013L0.802,0.013C0.807,0.013 0.81,0.016 0.81,0.021C0.81,0.026 0.807,0.029 0.802,0.029L0.099,0.029C0.094,0.029 0.091,0.026 0.091,0.021C0.091,0.016 0.094,0.013 0.099,0.013L0.402,0.013L0.402,-0.313L0.165,-0.313C0.16,-0.313 0.157,-0.316 0.157,-0.321C0.157,-0.326 0.16,-0.329 0.165,-0.329L0.402,-0.329L0.402,-0.616L0.133,-0.616C0.128,-0.616 0.125,-0.619 0.125,-0.624C0.125,-0.629 0.128,-0.632 0.133,-0.632Z" style="fill:white;fill-rule:nonzero;"/>
                </g>
                <g transform="matrix(27.9784,0,0,27.9784,1511.97,212.132)">
                    <path d="M0.161,-0.766C0.172,-0.785 0.188,-0.794 0.209,-0.794C0.23,-0.794 0.246,-0.785 0.257,-0.766C0.264,-0.754 0.267,-0.74 0.267,-0.725C0.267,-0.72 0.265,-0.718 0.26,-0.718L0.158,-0.718C0.153,-0.718 0.151,-0.72 0.151,-0.725C0.151,-0.74 0.154,-0.754 0.161,-0.766ZM0.236,-0.235C0.22,-0.105 0.178,-0.007 0.111,0.059C0.105,0.064 0.101,0.065 0.098,0.062C0.095,0.059 0.095,0.055 0.099,0.048C0.136,-0.027 0.16,-0.122 0.17,-0.235L0.1,-0.235C0.095,-0.235 0.092,-0.238 0.092,-0.243C0.092,-0.248 0.095,-0.251 0.1,-0.251L0.171,-0.251C0.174,-0.286 0.175,-0.324 0.175,-0.363L0.175,-0.426L0.088,-0.426C0.083,-0.426 0.08,-0.429 0.08,-0.434C0.08,-0.439 0.083,-0.442 0.088,-0.442L0.148,-0.442L0.128,-0.655L0.092,-0.655C0.087,-0.655 0.084,-0.658 0.084,-0.663C0.084,-0.668 0.087,-0.671 0.092,-0.671L0.324,-0.671C0.329,-0.671 0.332,-0.668 0.332,-0.663C0.332,-0.658 0.329,-0.655 0.324,-0.655L0.303,-0.655L0.286,-0.442L0.332,-0.442C0.337,-0.442 0.34,-0.439 0.34,-0.434C0.34,-0.429 0.337,-0.426 0.332,-0.426L0.243,-0.426L0.243,-0.363C0.243,-0.323 0.241,-0.286 0.237,-0.251L0.32,-0.251C0.325,-0.251 0.328,-0.248 0.328,-0.243C0.328,-0.238 0.325,-0.235 0.32,-0.235L0.236,-0.235ZM0.176,-0.655L0.196,-0.442L0.222,-0.442L0.239,-0.655L0.176,-0.655ZM0.43,-0.498C0.43,-0.246 0.38,-0.061 0.28,0.058C0.275,0.063 0.27,0.065 0.267,0.063C0.264,0.06 0.264,0.055 0.268,0.048C0.336,-0.084 0.37,-0.266 0.37,-0.498L0.37,-0.597L0.336,-0.597C0.331,-0.597 0.328,-0.6 0.328,-0.605C0.328,-0.61 0.331,-0.613 0.336,-0.613L0.37,-0.613L0.37,-0.769L0.353,-0.769C0.348,-0.769 0.345,-0.772 0.345,-0.777C0.345,-0.782 0.348,-0.785 0.353,-0.785L0.4,-0.785C0.42,-0.785 0.43,-0.775 0.43,-0.755L0.43,-0.613L0.518,-0.613C0.541,-0.613 0.552,-0.602 0.552,-0.579L0.552,-0.071C0.552,0.012 0.516,0.054 0.443,0.054L0.386,0.054C0.381,0.054 0.378,0.051 0.378,0.046C0.378,0.041 0.381,0.038 0.386,0.038L0.408,0.038C0.453,0.038 0.476,0.002 0.476,-0.071L0.476,-0.597L0.43,-0.597L0.43,-0.498ZM0.649,0.063L0.649,-0.236L0.583,-0.236C0.578,-0.236 0.575,-0.239 0.575,-0.244C0.575,-0.249 0.578,-0.252 0.583,-0.252L0.649,-0.252L0.649,-0.427L0.574,-0.427C0.569,-0.427 0.566,-0.43 0.566,-0.435C0.566,-0.44 0.569,-0.443 0.574,-0.443L0.618,-0.443L0.598,-0.655L0.566,-0.655C0.561,-0.655 0.558,-0.658 0.558,-0.663C0.558,-0.668 0.561,-0.671 0.566,-0.671L0.81,-0.671C0.815,-0.671 0.818,-0.668 0.818,-0.663C0.818,-0.658 0.815,-0.655 0.81,-0.655L0.791,-0.655L0.774,-0.443L0.816,-0.443C0.821,-0.443 0.824,-0.44 0.824,-0.435C0.824,-0.43 0.821,-0.427 0.816,-0.427L0.733,-0.427L0.733,-0.252L0.802,-0.252C0.807,-0.252 0.81,-0.249 0.81,-0.244C0.81,-0.239 0.807,-0.236 0.802,-0.236L0.733,-0.236L0.733,0.027C0.733,0.051 0.721,0.063 0.697,0.063L0.649,0.063ZM0.654,-0.655L0.674,-0.443L0.702,-0.443L0.719,-0.655L0.654,-0.655ZM0.642,-0.766C0.653,-0.785 0.669,-0.794 0.69,-0.794C0.711,-0.794 0.727,-0.785 0.738,-0.766C0.745,-0.754 0.748,-0.74 0.748,-0.725C0.748,-0.72 0.746,-0.718 0.741,-0.718L0.639,-0.718C0.634,-0.718 0.632,-0.72 0.632,-0.725C0.632,-0.74 0.635,-0.754 0.642,-0.766Z" style="fill:white;fill-rule:nonzero;"/>
                </g>
                <g transform="matrix(27.9784,0,0,27.9784,1537.15,212.132)">
                    <path d="M0.399,-0.484C0.399,-0.501 0.405,-0.515 0.417,-0.527C0.428,-0.539 0.443,-0.545 0.46,-0.545C0.477,-0.545 0.492,-0.539 0.504,-0.527C0.515,-0.515 0.521,-0.501 0.521,-0.484C0.521,-0.467 0.515,-0.452 0.504,-0.44C0.492,-0.428 0.477,-0.422 0.46,-0.422C0.443,-0.422 0.428,-0.428 0.417,-0.44C0.405,-0.452 0.399,-0.467 0.399,-0.484ZM0.399,-0.123C0.399,-0.14 0.405,-0.154 0.417,-0.166C0.428,-0.178 0.443,-0.184 0.46,-0.184C0.477,-0.184 0.492,-0.178 0.504,-0.166C0.515,-0.154 0.521,-0.14 0.521,-0.123C0.521,-0.106 0.515,-0.091 0.504,-0.079C0.492,-0.067 0.477,-0.061 0.46,-0.061C0.443,-0.061 0.428,-0.067 0.417,-0.079C0.405,-0.091 0.399,-0.106 0.399,-0.123Z" style="fill:white;fill-rule:nonzero;"/>
                </g>
            </g>
        </g>
    </g>
</svg>
